<svg width="1724" height="1117" viewBox="0 0 1724 1117" fill="none" xmlns="http://www.w3.org/2000/svg">
<rect x="-4" width="59" height="1117" fill="black"/>
<rect x="1665" width="59" height="1117" fill="black"/>
<path d="M420.5 907.5H1724V1117H303L420.5 907.5Z" fill="black"/>
<rect x="-4" width="1728" height="92" fill="black"/>
<rect x="31" y="1039" width="16.8511" height="10" rx="5" fill="#78C9A7"/>
<rect x="58.149" y="1039" width="16.8511" height="10" rx="5" fill="black"/>
<rect x="31" y="937" width="16.8511" height="10" rx="5" fill="#78C9A7"/>
<rect x="58.149" y="937" width="16.8511" height="10" rx="5" fill="black"/>
<rect x="31" y="835" width="16.8511" height="10" rx="5" fill="#78C9A7"/>
<rect x="58.149" y="835" width="16.8511" height="10" rx="5" fill="black"/>
<rect x="31" y="733" width="16.8511" height="10" rx="5" fill="#78C9A7"/>
<rect x="58.149" y="733" width="16.8511" height="10" rx="5" fill="black"/>
<rect x="31" y="631" width="16.8511" height="10" rx="5" fill="#78C9A7"/>
<rect x="58.149" y="631" width="16.8511" height="10" rx="5" fill="black"/>
<rect x="31" y="529" width="16.8511" height="10" rx="5" fill="#78C9A7"/>
<rect x="58.149" y="529" width="16.8511" height="10" rx="5" fill="black"/>
<rect x="31" y="427" width="16.8511" height="10" rx="5" fill="#78C9A7"/>
<rect x="58.149" y="427" width="16.8511" height="10" rx="5" fill="black"/>
<rect x="31" y="325" width="16.8511" height="10" rx="5" fill="#78C9A7"/>
<rect x="58.149" y="325" width="16.8511" height="10" rx="5" fill="black"/>
<rect x="31" y="223" width="16.8511" height="10" rx="5" fill="#78C9A7"/>
<rect x="58.149" y="223" width="16.8511" height="10" rx="5" fill="black"/>
<rect x="31" y="121" width="16.8511" height="10" rx="5" fill="#78C9A7"/>
<rect x="58.149" y="121" width="16.8511" height="10" rx="5" fill="black"/>
<rect x="117" y="69" width="16.8511" height="10" rx="5" transform="rotate(90 117 69)" fill="#78C9A7"/>
<rect x="117" y="96.149" width="16.8511" height="10" rx="5" transform="rotate(90 117 96.149)" fill="black"/>
<rect x="313" y="69" width="16.8511" height="10" rx="5" transform="rotate(90 313 69)" fill="#78C9A7"/>
<rect x="313" y="96.149" width="16.8511" height="10" rx="5" transform="rotate(90 313 96.149)" fill="black"/>
<rect x="509" y="69" width="16.8511" height="10" rx="5" transform="rotate(90 509 69)" fill="#78C9A7"/>
<rect x="509" y="96.149" width="16.8511" height="10" rx="5" transform="rotate(90 509 96.149)" fill="black"/>
<rect x="705" y="69" width="16.8511" height="10" rx="5" transform="rotate(90 705 69)" fill="#78C9A7"/>
<rect x="705" y="96.149" width="16.8511" height="10" rx="5" transform="rotate(90 705 96.149)" fill="black"/>
<rect x="901" y="69" width="16.8511" height="10" rx="5" transform="rotate(90 901 69)" fill="#78C9A7"/>
<rect x="901" y="96.149" width="16.8511" height="10" rx="5" transform="rotate(90 901 96.149)" fill="black"/>
<rect x="1097" y="69" width="16.8511" height="10" rx="5" transform="rotate(90 1097 69)" fill="#78C9A7"/>
<rect x="1097" y="96.149" width="16.8511" height="10" rx="5" transform="rotate(90 1097 96.149)" fill="black"/>
<rect x="1293" y="69" width="16.8511" height="10" rx="5" transform="rotate(90 1293 69)" fill="#78C9A7"/>
<rect x="1293" y="96.149" width="16.8511" height="10" rx="5" transform="rotate(90 1293 96.149)" fill="black"/>
<rect x="1489" y="69" width="16.8511" height="10" rx="5" transform="rotate(90 1489 69)" fill="#78C9A7"/>
<rect x="1489" y="96.149" width="16.8511" height="10" rx="5" transform="rotate(90 1489 96.149)" fill="black"/>
<rect x="219" y="69" width="16.8511" height="10" rx="5" transform="rotate(90 219 69)" fill="#78C9A7"/>
<rect x="219" y="96.149" width="16.8511" height="10" rx="5" transform="rotate(90 219 96.149)" fill="black"/>
<rect x="415" y="69" width="16.8511" height="10" rx="5" transform="rotate(90 415 69)" fill="#78C9A7"/>
<rect x="415" y="96.149" width="16.8511" height="10" rx="5" transform="rotate(90 415 96.149)" fill="black"/>
<rect x="611" y="69" width="16.8511" height="10" rx="5" transform="rotate(90 611 69)" fill="#78C9A7"/>
<rect x="611" y="96.149" width="16.8511" height="10" rx="5" transform="rotate(90 611 96.149)" fill="black"/>
<rect x="807" y="69" width="16.8511" height="10" rx="5" transform="rotate(90 807 69)" fill="#78C9A7"/>
<rect x="807" y="96.149" width="16.8511" height="10" rx="5" transform="rotate(90 807 96.149)" fill="black"/>
<rect x="1003" y="69" width="16.8511" height="10" rx="5" transform="rotate(90 1003 69)" fill="#78C9A7"/>
<rect x="1003" y="96.149" width="16.8511" height="10" rx="5" transform="rotate(90 1003 96.149)" fill="black"/>
<rect x="1199" y="69" width="16.8511" height="10" rx="5" transform="rotate(90 1199 69)" fill="#78C9A7"/>
<rect x="1199" y="96.149" width="16.8511" height="10" rx="5" transform="rotate(90 1199 96.149)" fill="black"/>
<rect x="1395" y="69" width="16.8511" height="10" rx="5" transform="rotate(90 1395 69)" fill="#78C9A7"/>
<rect x="1395" y="96.149" width="16.8511" height="10" rx="5" transform="rotate(90 1395 96.149)" fill="black"/>
<rect x="1591" y="69" width="16.8511" height="10" rx="5" transform="rotate(90 1591 69)" fill="#78C9A7"/>
<rect x="1591" y="96.149" width="16.8511" height="10" rx="5" transform="rotate(90 1591 96.149)" fill="black"/>
<rect x="932.5" y="747.5" width="217" height="93" fill="black" stroke="#E0AD41" stroke-width="3"/>
<path d="M994.733 762.455V785H992.091L979.806 767.298H979.586V785H976.856V762.455H979.498L991.827 780.2H992.047V762.455H994.733ZM1019.22 773.727C1019.22 776.105 1018.79 778.16 1017.93 779.892C1017.07 781.624 1015.89 782.96 1014.4 783.899C1012.9 784.839 1011.19 785.308 1009.27 785.308C1007.34 785.308 1005.63 784.839 1004.14 783.899C1002.64 782.96 1001.46 781.624 1000.6 779.892C999.745 778.16 999.316 776.105 999.316 773.727C999.316 771.349 999.745 769.295 1000.6 767.562C1001.46 765.83 1002.64 764.495 1004.14 763.555C1005.63 762.616 1007.34 762.146 1009.27 762.146C1011.19 762.146 1012.9 762.616 1014.4 763.555C1015.89 764.495 1017.07 765.83 1017.93 767.562C1018.79 769.295 1019.22 771.349 1019.22 773.727ZM1016.58 773.727C1016.58 771.775 1016.25 770.127 1015.6 768.784C1014.95 767.441 1014.07 766.425 1012.97 765.735C1011.87 765.045 1010.63 764.7 1009.27 764.7C1007.9 764.7 1006.67 765.045 1005.56 765.735C1004.46 766.425 1003.58 767.441 1002.93 768.784C1002.28 770.127 1001.96 771.775 1001.96 773.727C1001.96 775.679 1002.28 777.327 1002.93 778.67C1003.58 780.013 1004.46 781.03 1005.56 781.719C1006.67 782.409 1007.9 782.754 1009.27 782.754C1010.63 782.754 1011.87 782.409 1012.97 781.719C1014.07 781.03 1014.95 780.013 1015.6 778.67C1016.25 777.327 1016.58 775.679 1016.58 773.727ZM1023.81 785V762.455H1031.43C1033.19 762.455 1034.63 762.755 1035.76 763.357C1036.9 763.952 1037.73 764.77 1038.27 765.812C1038.82 766.854 1039.09 768.04 1039.09 769.368C1039.09 770.696 1038.82 771.874 1038.27 772.902C1037.73 773.929 1036.9 774.736 1035.78 775.324C1034.65 775.903 1033.22 776.193 1031.47 776.193H1025.31V773.727H1031.38C1032.59 773.727 1033.56 773.551 1034.29 773.199C1035.03 772.847 1035.57 772.348 1035.9 771.702C1036.23 771.049 1036.4 770.271 1036.4 769.368C1036.4 768.465 1036.23 767.676 1035.9 767.001C1035.56 766.326 1035.02 765.805 1034.28 765.438C1033.54 765.064 1032.56 764.876 1031.34 764.876H1026.54V785H1023.81ZM1034.42 774.872L1039.97 785H1036.8L1031.34 774.872H1034.42ZM1043.64 762.455H1046.9L1054.56 781.169H1054.82L1062.49 762.455H1065.74V785H1063.19V767.871H1062.97L1055.92 785H1053.46L1046.41 767.871H1046.19V785H1043.64V762.455ZM1072.14 785H1069.28L1077.56 762.455H1080.38L1088.66 785H1085.79L1079.06 766.021H1078.88L1072.14 785ZM1073.2 776.193H1084.74V778.615H1073.2V776.193ZM1092.17 785V762.455H1094.9V782.578H1105.38V785H1092.17ZM1012.26 799.254V801.517H1037.93V799.254H1012.26ZM1025.68 809.794V812.088H1036.69V809.794H1025.68ZM1011.08 821.853V824.116H1038.95V821.853H1011.08ZM1024.57 800.091V822.969H1026.98V800.091H1024.57ZM1015.33 807.221V823.062H1017.72V807.221H1015.33ZM1055.19 812.057V825.511H1057.55V812.057H1055.19ZM1050.2 807.81H1061.92V810.817H1050.2V807.81ZM1047.94 806.043V812.615H1064.31V806.043H1047.94ZM1045.18 815.188V824.085H1047.51V817.296H1065.95V815.188H1045.18ZM1064.8 815.188V821.667C1064.8 822.008 1064.65 822.132 1064.18 822.163C1063.69 822.194 1062.01 822.194 1060.15 822.132C1060.5 822.752 1060.84 823.62 1060.96 824.24C1063.38 824.24 1064.96 824.24 1065.95 823.868C1066.91 823.527 1067.16 822.876 1067.16 821.667V815.188H1064.8ZM1054.98 796.96V802.602H1057.36V796.96H1054.98ZM1043.14 801.765V808.461H1045.4V803.842H1066.73V808.461H1069.05V801.765H1043.14ZM1045.71 798.107C1046.67 799.254 1047.72 800.866 1048.19 801.92L1050.42 800.897C1049.89 799.874 1048.81 798.386 1047.79 797.27L1045.71 798.107ZM1064.12 797.208C1063.53 798.324 1062.39 799.998 1061.52 801.021L1063.41 801.796C1064.34 800.835 1065.52 799.409 1066.54 798.045L1064.12 797.208Z" fill="#E0AD41"/>
<rect x="443.5" y="747.5" width="217" height="93" fill="black" stroke="#E0AD41" stroke-width="3"/>
<path d="M526.554 769.091C526.422 767.975 525.886 767.109 524.947 766.493C524.008 765.876 522.855 765.568 521.49 765.568C520.492 765.568 519.619 765.73 518.87 766.053C518.129 766.375 517.549 766.819 517.131 767.385C516.72 767.95 516.515 768.592 516.515 769.311C516.515 769.913 516.658 770.43 516.944 770.863C517.237 771.289 517.612 771.645 518.067 771.931C518.522 772.21 518.999 772.441 519.498 772.625C519.997 772.801 520.456 772.944 520.874 773.054L523.164 773.67C523.751 773.825 524.404 774.037 525.123 774.309C525.85 774.58 526.543 774.951 527.204 775.421C527.872 775.883 528.422 776.478 528.855 777.204C529.288 777.931 529.505 778.822 529.505 779.879C529.505 781.098 529.185 782.198 528.547 783.182C527.916 784.165 526.991 784.947 525.773 785.527C524.562 786.106 523.09 786.396 521.358 786.396C519.744 786.396 518.346 786.136 517.164 785.615C515.99 785.094 515.065 784.367 514.39 783.435C513.722 782.503 513.344 781.42 513.256 780.188H516.074C516.148 781.039 516.434 781.743 516.933 782.301C517.439 782.852 518.078 783.263 518.848 783.534C519.626 783.798 520.463 783.93 521.358 783.93C522.4 783.93 523.336 783.762 524.165 783.424C524.995 783.079 525.652 782.602 526.136 781.993C526.62 781.376 526.863 780.657 526.863 779.835C526.863 779.087 526.653 778.478 526.235 778.008C525.817 777.538 525.266 777.156 524.584 776.863C523.901 776.569 523.164 776.312 522.371 776.092L519.597 775.3C517.836 774.793 516.441 774.07 515.414 773.131C514.386 772.192 513.872 770.962 513.872 769.443C513.872 768.181 514.214 767.08 514.896 766.141C515.586 765.194 516.511 764.46 517.67 763.939C518.837 763.411 520.14 763.146 521.578 763.146C523.032 763.146 524.323 763.407 525.453 763.928C526.584 764.442 527.479 765.146 528.14 766.042C528.807 766.937 529.16 767.953 529.196 769.091H526.554ZM532.76 765.876V763.455H549.669V765.876H542.58V786H539.85V765.876H532.76ZM571.967 774.727C571.967 777.105 571.538 779.16 570.679 780.892C569.821 782.624 568.643 783.96 567.145 784.899C565.648 785.839 563.938 786.308 562.015 786.308C560.093 786.308 558.383 785.839 556.886 784.899C555.388 783.96 554.21 782.624 553.352 780.892C552.493 779.16 552.064 777.105 552.064 774.727C552.064 772.349 552.493 770.295 553.352 768.562C554.21 766.83 555.388 765.495 556.886 764.555C558.383 763.616 560.093 763.146 562.015 763.146C563.938 763.146 565.648 763.616 567.145 764.555C568.643 765.495 569.821 766.83 570.679 768.562C571.538 770.295 571.967 772.349 571.967 774.727ZM569.325 774.727C569.325 772.775 568.999 771.127 568.345 769.784C567.7 768.441 566.823 767.425 565.714 766.735C564.614 766.045 563.381 765.7 562.015 765.7C560.65 765.7 559.414 766.045 558.306 766.735C557.205 767.425 556.328 768.441 555.675 769.784C555.029 771.127 554.706 772.775 554.706 774.727C554.706 776.679 555.029 778.327 555.675 779.67C556.328 781.013 557.205 782.03 558.306 782.719C559.414 783.409 560.65 783.754 562.015 783.754C563.381 783.754 564.614 783.409 565.714 782.719C566.823 782.03 567.7 781.013 568.345 779.67C568.999 778.327 569.325 776.679 569.325 774.727ZM576.558 786V763.455H584.176C585.944 763.455 587.39 763.774 588.513 764.412C589.643 765.043 590.48 765.898 591.023 766.977C591.566 768.056 591.838 769.26 591.838 770.588C591.838 771.916 591.566 773.124 591.023 774.21C590.487 775.296 589.658 776.162 588.535 776.808C587.412 777.446 585.974 777.766 584.22 777.766H578.759V775.344H584.132C585.343 775.344 586.315 775.135 587.049 774.716C587.783 774.298 588.315 773.733 588.645 773.021C588.983 772.302 589.152 771.491 589.152 770.588C589.152 769.685 588.983 768.878 588.645 768.166C588.315 767.454 587.779 766.897 587.038 766.493C586.297 766.082 585.313 765.876 584.088 765.876H579.288V786H576.558ZM523.174 804.346L524.941 802.951C523.794 801.742 521.438 799.789 520.415 798.983L518.648 800.254C519.95 801.246 521.996 803.137 523.174 804.346ZM513.316 801.649L510.805 802.672C511.301 803.292 511.921 804.284 512.293 804.904C513.347 806.671 514.742 809.678 516.199 812.933C517.966 816.994 519.454 821.954 520.415 825.643L523.081 824.93C522.027 821.489 520.043 815.754 518.369 811.879C517.098 809.058 515.61 805.927 514.401 803.757C514.091 803.168 513.564 802.176 513.316 801.649ZM507.829 810.701L509.038 813.243C512.944 811.538 522.12 806.175 527.297 806.175C530.335 806.175 531.792 807.88 531.792 809.709C531.792 811.91 530.397 813.801 526.987 813.801C525.344 813.801 523.794 813.336 522.585 812.778L522.523 815.227C523.67 815.661 525.437 816.095 527.173 816.095C532.009 816.095 534.272 813.398 534.272 809.802C534.272 806.423 531.668 804.005 527.359 804.005C522.213 804.005 514.68 808.221 510.371 809.864C509.813 810.112 508.728 810.484 507.829 810.701ZM557.739 800.006L555.042 799.758C555.073 800.471 554.98 801.494 554.856 802.114C554.081 806.64 552.004 812.313 549.958 815.475C548.377 817.986 546.207 820.621 544.192 820.621C542.797 820.621 541.898 819.381 541.898 817.335C541.898 814.545 543.572 811.228 546.207 809.337C548.625 807.539 551.322 806.516 554.329 806.516C559.32 806.516 562.606 809.864 562.606 814.421C562.606 819.226 559.041 822.605 552.562 823.194L553.988 825.395C560.653 824.465 565.086 820.714 565.086 814.514C565.086 808.469 560.684 804.377 554.608 804.377C551.415 804.377 548.377 805.183 545.308 807.26C542.022 809.461 539.635 813.584 539.635 817.49C539.635 821.117 541.619 823.07 543.975 823.07C546.796 823.07 549.059 820.745 551.415 817.459C553.895 814.049 556.065 807.57 557.181 802.455C557.336 801.866 557.522 800.781 557.739 800.006ZM545.029 801.432L542.456 802.238C542.859 803.044 543.2 804.067 543.51 805.059C544.688 808.934 546.486 813.677 548.005 816.095C549.183 818.11 550.33 819.629 551.57 820.993L553.523 819.412C552.035 817.986 550.578 815.94 549.524 814.142C548.222 811.972 546.486 807.198 545.68 804.16C545.432 803.292 545.184 802.269 545.029 801.432ZM575.378 801.184L575.44 803.726C576.122 803.633 576.804 803.602 577.517 803.54C579.129 803.447 585.329 803.199 586.972 803.106C585.422 804.501 581.516 807.756 579.78 809.182C578.013 810.701 574.014 814.049 571.441 816.157L573.239 817.955C577.145 813.956 579.935 811.786 585.081 811.786C589.142 811.786 592.056 814.049 592.056 817.118C592.056 820.993 588.739 823.163 583.469 823.163C581.02 823.163 579.315 822.264 579.315 820.745C579.315 819.66 580.4 818.792 581.826 818.792C584.306 818.792 585.825 820.683 586.011 823.318L588.243 822.946C588.026 819.815 585.949 816.901 581.826 816.901C578.974 816.901 577.052 818.823 577.052 820.931C577.052 823.535 579.625 825.364 583.841 825.364C590.413 825.364 594.536 822.109 594.536 817.118C594.536 812.933 590.847 809.864 585.701 809.864C584.306 809.864 582.818 810.019 581.392 810.484C583.81 808.5 588.026 804.873 589.545 803.695C590.134 803.23 590.754 802.827 591.312 802.455L589.886 800.626C589.545 800.75 589.111 800.812 588.181 800.905C586.538 801.06 579.191 801.277 577.548 801.277C576.928 801.277 576.06 801.246 575.378 801.184Z" fill="#E0AD41"/>
<rect x="688.5" y="747.5" width="216" height="93" fill="black" stroke="#E0AD41" stroke-width="3"/>
<path d="M766.876 769.091C766.744 767.975 766.208 767.109 765.269 766.493C764.329 765.876 763.177 765.568 761.812 765.568C760.814 765.568 759.941 765.73 759.192 766.053C758.451 766.375 757.871 766.819 757.453 767.385C757.042 767.95 756.836 768.592 756.836 769.311C756.836 769.913 756.979 770.43 757.266 770.863C757.559 771.289 757.933 771.645 758.388 771.931C758.844 772.21 759.321 772.441 759.82 772.625C760.319 772.801 760.777 772.944 761.196 773.054L763.485 773.67C764.073 773.825 764.726 774.037 765.445 774.309C766.172 774.58 766.865 774.951 767.526 775.421C768.193 775.883 768.744 776.478 769.177 777.204C769.61 777.931 769.826 778.822 769.826 779.879C769.826 781.098 769.507 782.198 768.869 783.182C768.237 784.165 767.313 784.947 766.094 785.527C764.884 786.106 763.412 786.396 761.68 786.396C760.065 786.396 758.667 786.136 757.486 785.615C756.312 785.094 755.387 784.367 754.712 783.435C754.044 782.503 753.666 781.42 753.578 780.188H756.396C756.469 781.039 756.756 781.743 757.255 782.301C757.761 782.852 758.4 783.263 759.17 783.534C759.948 783.798 760.785 783.93 761.68 783.93C762.722 783.93 763.658 783.762 764.487 783.424C765.317 783.079 765.973 782.602 766.458 781.993C766.942 781.376 767.184 780.657 767.184 779.835C767.184 779.087 766.975 778.478 766.557 778.008C766.138 777.538 765.588 777.156 764.906 776.863C764.223 776.569 763.485 776.312 762.693 776.092L759.919 775.3C758.157 774.793 756.763 774.07 755.735 773.131C754.708 772.192 754.194 770.962 754.194 769.443C754.194 768.181 754.536 767.08 755.218 766.141C755.908 765.194 756.833 764.46 757.992 763.939C759.159 763.411 760.462 763.146 761.9 763.146C763.353 763.146 764.645 763.407 765.775 763.928C766.905 764.442 767.801 765.146 768.461 766.042C769.129 766.937 769.481 767.953 769.518 769.091H766.876ZM774.315 786V763.455H777.045V783.578H787.525V786H774.315ZM809.897 774.727C809.897 777.105 809.468 779.16 808.609 780.892C807.751 782.624 806.573 783.96 805.076 784.899C803.578 785.839 801.868 786.308 799.946 786.308C798.023 786.308 796.313 785.839 794.816 784.899C793.319 783.96 792.141 782.624 791.282 780.892C790.423 779.16 789.994 777.105 789.994 774.727C789.994 772.349 790.423 770.295 791.282 768.562C792.141 766.83 793.319 765.495 794.816 764.555C796.313 763.616 798.023 763.146 799.946 763.146C801.868 763.146 803.578 763.616 805.076 764.555C806.573 765.495 807.751 766.83 808.609 768.562C809.468 770.295 809.897 772.349 809.897 774.727ZM807.255 774.727C807.255 772.775 806.929 771.127 806.276 769.784C805.63 768.441 804.753 767.425 803.645 766.735C802.544 766.045 801.311 765.7 799.946 765.7C798.581 765.7 797.344 766.045 796.236 766.735C795.135 767.425 794.258 768.441 793.605 769.784C792.959 771.127 792.636 772.775 792.636 774.727C792.636 776.679 792.959 778.327 793.605 779.67C794.258 781.013 795.135 782.03 796.236 782.719C797.344 783.409 798.581 783.754 799.946 783.754C801.311 783.754 802.544 783.409 803.645 782.719C804.753 782.03 805.63 781.013 806.276 779.67C806.929 778.327 807.255 776.679 807.255 774.727ZM818.583 786L812.418 763.455H815.192L819.904 781.817H820.124L824.924 763.455H828.006L832.806 781.817H833.026L837.738 763.455H840.512L834.347 786H831.529L826.553 768.034H826.377L821.401 786H818.583ZM774.769 803.292L773.219 802.083C772.723 802.238 771.886 802.331 770.894 802.331C769.716 802.331 760.137 802.331 758.928 802.331C757.967 802.331 756.2 802.207 755.797 802.145V804.935C756.138 804.904 757.812 804.78 758.928 804.78C759.982 804.78 769.902 804.78 771.018 804.78C770.212 807.353 767.949 811.042 765.841 813.429C762.648 816.963 758.091 820.683 753.069 822.605L755.053 824.682C759.951 822.45 764.384 818.761 767.856 814.886C770.429 812.034 772.785 807.694 774.025 804.625C774.18 804.222 774.583 803.54 774.769 803.292ZM768.259 813.274L766.492 815.01C769.84 817.955 773.467 821.923 775.699 824.868L777.838 822.977C775.73 820.404 771.607 816.064 768.259 813.274ZM785.526 802.765C785.557 803.54 785.557 804.47 785.557 805.183C785.557 806.392 785.557 819.195 785.557 820.466C785.557 821.551 785.495 823.814 785.495 824.217H788.13C788.13 823.814 788.099 821.83 788.099 820.807C788.099 819.536 788.099 805.276 788.099 805.276H805.025C805.025 805.276 805.025 819.66 805.025 820.807C805.025 822.109 804.994 823.876 804.963 824.217H807.66C807.629 823.876 807.598 821.458 807.598 820.466C807.598 819.288 807.598 806.64 807.598 805.183C807.598 804.408 807.598 803.54 807.66 802.796C806.699 802.827 805.583 802.827 804.932 802.827C803.413 802.827 789.928 802.827 788.285 802.827C787.541 802.827 786.735 802.827 785.526 802.765ZM806.048 820.032H786.859V822.45H806.048V820.032ZM815.131 810.577V813.615C816.123 813.553 817.766 813.491 819.471 813.491C821.765 813.491 834.134 813.491 836.49 813.491C837.854 813.491 839.156 813.584 839.807 813.615V810.577C839.094 810.639 838.009 810.763 836.459 810.763C834.165 810.763 821.734 810.763 819.471 810.763C817.704 810.763 816.092 810.67 815.131 810.577Z" fill="#E0AD41"/>
<rect x="1177.14" y="747.5" width="217.363" height="93" fill="black" stroke="#E0AD41" stroke-width="3"/>
<rect x="1178.64" y="811.01" width="214.363" height="27.9904" fill="#BD1900"/>
<path d="M1208.74 795V763.727H1219.31C1221.75 763.727 1223.76 764.145 1225.33 764.979C1226.89 765.804 1228.05 766.939 1228.81 768.385C1229.56 769.83 1229.94 771.474 1229.94 773.317C1229.94 775.159 1229.56 776.793 1228.81 778.218C1228.05 779.644 1226.9 780.763 1225.34 781.578C1223.78 782.382 1221.79 782.784 1219.37 782.784H1210.82V779.364H1219.25C1220.92 779.364 1222.26 779.119 1223.28 778.631C1224.31 778.142 1225.05 777.45 1225.51 776.554C1225.98 775.648 1226.21 774.569 1226.21 773.317C1226.21 772.065 1225.98 770.97 1225.51 770.034C1225.04 769.097 1224.29 768.374 1223.26 767.865C1222.24 767.346 1220.88 767.087 1219.19 767.087H1212.53V795H1208.74ZM1223.46 780.952L1231.16 795H1226.76L1219.19 780.952H1223.46ZM1237.53 795H1233.56L1245.04 763.727H1248.95L1260.43 795H1256.46L1247.12 768.675H1246.87L1237.53 795ZM1239 782.784H1255V786.143H1239V782.784ZM1289 773.5H1285.21C1284.99 772.411 1284.6 771.454 1284.04 770.629C1283.49 769.805 1282.82 769.112 1282.02 768.553C1281.24 767.982 1280.37 767.555 1279.41 767.27C1278.45 766.985 1277.46 766.842 1276.42 766.842C1274.52 766.842 1272.81 767.321 1271.27 768.278C1269.75 769.235 1268.53 770.645 1267.62 772.507C1266.73 774.37 1266.28 776.656 1266.28 779.364C1266.28 782.071 1266.73 784.357 1267.62 786.22C1268.53 788.083 1269.75 789.493 1271.27 790.45C1272.81 791.406 1274.52 791.885 1276.42 791.885C1277.46 791.885 1278.45 791.742 1279.41 791.457C1280.37 791.172 1281.24 790.75 1282.02 790.19C1282.82 789.62 1283.49 788.923 1284.04 788.098C1284.6 787.263 1284.99 786.306 1285.21 785.227H1289C1288.72 786.826 1288.2 788.256 1287.44 789.518C1286.69 790.78 1285.75 791.854 1284.63 792.74C1283.51 793.616 1282.26 794.282 1280.86 794.74C1279.48 795.199 1278 795.428 1276.42 795.428C1273.75 795.428 1271.38 794.776 1269.3 793.473C1267.23 792.17 1265.59 790.317 1264.4 787.915C1263.21 785.512 1262.61 782.662 1262.61 779.364C1262.61 776.065 1263.21 773.215 1264.4 770.812C1265.59 768.41 1267.23 766.557 1269.3 765.254C1271.38 763.951 1273.75 763.3 1276.42 763.3C1278 763.3 1279.48 763.529 1280.86 763.987C1282.26 764.445 1283.51 765.117 1284.63 766.002C1285.75 766.878 1286.69 767.947 1287.44 769.209C1288.2 770.461 1288.72 771.892 1289 773.5ZM1298.91 763.727V795H1295.12V763.727H1298.91ZM1331.3 763.727V795H1327.63L1310.59 770.446H1310.29V795H1306.5V763.727H1310.16L1327.27 788.342H1327.57V763.727H1331.3ZM1360.25 773.5C1359.92 772.472 1359.47 771.551 1358.93 770.736C1358.39 769.912 1357.74 769.209 1356.99 768.629C1356.24 768.049 1355.4 767.606 1354.45 767.3C1353.5 766.995 1352.47 766.842 1351.34 766.842C1349.48 766.842 1347.8 767.321 1346.28 768.278C1344.76 769.235 1343.56 770.645 1342.66 772.507C1341.77 774.37 1341.32 776.656 1341.32 779.364C1341.32 782.071 1341.77 784.357 1342.68 786.22C1343.58 788.083 1344.81 789.493 1346.36 790.45C1347.91 791.406 1349.65 791.885 1351.58 791.885C1353.37 791.885 1354.95 791.503 1356.31 790.74C1357.69 789.966 1358.76 788.877 1359.52 787.472C1360.29 786.057 1360.68 784.393 1360.68 782.479L1361.84 782.723H1352.44V779.364H1364.35V782.723C1364.35 785.299 1363.8 787.538 1362.7 789.442C1361.61 791.345 1360.1 792.821 1358.18 793.87C1356.26 794.908 1354.06 795.428 1351.58 795.428C1348.81 795.428 1346.38 794.776 1344.28 793.473C1342.19 792.17 1340.57 790.317 1339.39 787.915C1338.23 785.512 1337.65 782.662 1337.65 779.364C1337.65 776.89 1337.99 774.666 1338.65 772.691C1339.32 770.706 1340.27 769.016 1341.49 767.621C1342.71 766.226 1344.15 765.158 1345.82 764.414C1347.49 763.671 1349.33 763.3 1351.34 763.3C1352.99 763.3 1354.52 763.549 1355.95 764.048C1357.38 764.537 1358.66 765.234 1359.78 766.14C1360.91 767.036 1361.85 768.11 1362.61 769.362C1363.36 770.604 1363.88 771.983 1364.16 773.5H1360.25Z" fill="#E0AD41"/>
<path d="M1254.17 833.225L1255.6 834.45C1256 834.225 1256.4 834.1 1256.65 834.025C1262.9 832.2 1268.05 829.125 1271.3 825.1L1270.17 823.35C1267.05 827.375 1261.27 830.65 1256.47 831.875C1256.47 830.6 1256.47 820.05 1256.47 817.675C1256.47 816.975 1256.57 816.025 1256.65 815.425H1254.2C1254.3 815.9 1254.4 817.025 1254.4 817.7C1254.4 820.075 1254.4 830.425 1254.4 832C1254.4 832.475 1254.35 832.825 1254.17 833.225ZM1276.15 823.175V825.625C1276.95 825.575 1278.27 825.525 1279.65 825.525C1281.5 825.525 1291.47 825.525 1293.37 825.525C1294.47 825.525 1295.52 825.6 1296.05 825.625V823.175C1295.47 823.225 1294.6 823.325 1293.35 823.325C1291.5 823.325 1281.47 823.325 1279.65 823.325C1278.22 823.325 1276.92 823.25 1276.15 823.175ZM1317.35 817.3L1316.1 816.325C1315.7 816.45 1315.03 816.525 1314.23 816.525C1313.28 816.525 1305.55 816.525 1304.58 816.525C1303.8 816.525 1302.38 816.425 1302.05 816.375V818.625C1302.33 818.6 1303.68 818.5 1304.58 818.5C1305.43 818.5 1313.43 818.5 1314.33 818.5C1313.68 820.575 1311.85 823.55 1310.15 825.475C1307.58 828.325 1303.9 831.325 1299.85 832.875L1301.45 834.55C1305.4 832.75 1308.98 829.775 1311.78 826.65C1313.85 824.35 1315.75 820.85 1316.75 818.375C1316.88 818.05 1317.2 817.5 1317.35 817.3ZM1312.1 825.35L1310.68 826.75C1313.38 829.125 1316.3 832.325 1318.1 834.7L1319.83 833.175C1318.13 831.1 1314.8 827.6 1312.1 825.35Z" fill="white"/>
<path d="M401.481 871.5H400.615L400.182 872.25L257.701 1119.25L256.403 1121.5H259H283.411H284.276L284.709 1120.75L427.689 873.751L428.992 871.5H426.39H401.481Z" fill="black" stroke="black" stroke-width="3"/>
<path d="M403.474 871H401.474V873V896V898H403.474H1427.23H1429.23H1453.09H1455.09H1632H1634V896V692V690H1632H1429.23H1427.23V692V871H403.474Z" fill="black" stroke="black" stroke-width="4"/>
<path d="M303 311H404V716L182.5 1118H78.5L163.5 716L303 311Z" fill="black"/>
<mask id="path-70-outside-1_2_13" maskUnits="userSpaceOnUse" x="298.677" y="178" width="1338" height="542" fill="black">
<rect fill="white" x="298.677" y="178" width="1338" height="542"/>
<path fill-rule="evenodd" clip-rule="evenodd" d="M549.35 182H302.677V316H403.515V716H1632V227H571.015L549.35 182Z"/>
</mask>
<path fill-rule="evenodd" clip-rule="evenodd" d="M549.35 182H302.677V316H403.515V716H1632V227H571.015L549.35 182Z" fill="black"/>
<path d="M302.677 182V178H298.677V182H302.677ZM549.35 182L552.954 180.265L551.864 178H549.35V182ZM302.677 316H298.677V320H302.677V316ZM403.515 316H407.515V312H403.515V316ZM403.515 716H399.515V720H403.515V716ZM1632 716V720H1636V716H1632ZM1632 227H1636V223H1632V227ZM571.015 227L567.411 228.735L568.502 231H571.015V227ZM302.677 186H549.35V178H302.677V186ZM306.677 316V182H298.677V316H306.677ZM403.515 312H302.677V320H403.515V312ZM407.515 716V316H399.515V716H407.515ZM1632 712H403.515V720H1632V712ZM1628 227V716H1636V227H1628ZM571.015 231H1632V223H571.015V231ZM545.746 183.735L567.411 228.735L574.619 225.265L552.954 180.265L545.746 183.735Z" fill="#E0AD41" mask="url(#path-70-outside-1_2_13)"/>
<rect x="1327.5" y="427.5" width="271" height="149" fill="black" stroke="#E0AD41" stroke-width="3"/>
<path d="M1339.46 465.56V467.114H1356.15V465.56H1339.46ZM1340.43 471.734V473.267H1355.27V471.734H1340.43ZM1338.49 478.433V479.987H1357.2V478.433H1338.49ZM1346.96 466.799V479.231H1348.66V466.799H1346.96ZM1345.15 462.326C1346.54 463.355 1348.2 464.846 1348.95 465.833L1350.32 464.846C1349.5 463.838 1347.8 462.41 1346.43 461.444L1345.15 462.326ZM1361.36 464.972V466.799C1361.89 466.757 1362.71 466.715 1363.13 466.715H1374.66C1375.26 466.715 1375.94 466.757 1376.46 466.799V464.972C1375.96 465.035 1375.31 465.077 1374.66 465.077H1363.13C1362.69 465.077 1361.91 465.035 1361.36 464.972ZM1367.85 477.299H1369.64V466.022H1367.85V477.299ZM1360.08 476.27V478.16C1360.71 478.118 1361.36 478.097 1361.93 478.097H1375.81C1376.21 478.097 1376.99 478.097 1377.53 478.16V476.27C1377.01 476.312 1376.44 476.396 1375.81 476.396H1361.93C1361.34 476.396 1360.69 476.354 1360.08 476.27ZM1390.91 462.2H1389C1389.08 462.662 1389.1 463.439 1389.1 464.027C1389.1 464.636 1389.1 465.686 1389.1 466.106H1390.78C1390.78 465.686 1390.78 464.594 1390.78 464.027C1390.78 463.46 1390.83 462.641 1390.91 462.2ZM1396.68 466.316L1395.57 465.245C1395.24 465.35 1394.75 465.392 1394.25 465.392C1392.99 465.392 1385.95 465.392 1384.99 465.392C1384.27 465.392 1383.12 465.35 1382.45 465.266V467.051C1383.08 466.988 1384.29 466.967 1385.01 466.967C1385.95 466.967 1392.76 466.967 1393.74 466.967C1393.01 467.954 1391.35 469.592 1389.46 470.81C1387.57 472.049 1384.95 473.414 1380.96 474.38L1381.98 475.934C1385.58 474.842 1388.33 473.624 1390.62 472.028C1392.61 470.663 1394.42 468.857 1395.51 467.576C1395.84 467.177 1396.31 466.694 1396.68 466.316ZM1390.74 471.167L1389.06 471.881C1389.06 473.225 1389.06 475.997 1389.06 477.572C1389.06 478.307 1389 479.273 1388.94 479.903H1390.85C1390.78 479.252 1390.74 478.307 1390.74 477.572C1390.74 475.955 1390.74 472.784 1390.74 471.167ZM1397.65 476.186L1398.76 474.758C1396.81 473.456 1395.68 472.784 1393.7 471.734L1392.61 472.952C1394.56 474.002 1395.82 474.842 1397.65 476.186ZM1411.3 478.559L1412.41 479.483C1412.58 479.378 1412.79 479.189 1413.15 479.021C1415.58 477.803 1418.48 475.661 1420.31 473.204L1419.3 471.755C1417.71 474.128 1415.12 476.039 1413.17 476.921C1413.17 476.291 1413.17 466.127 1413.17 464.825C1413.17 464.027 1413.25 463.418 1413.27 463.25H1411.34C1411.34 463.418 1411.45 464.006 1411.45 464.804C1411.45 466.127 1411.45 476.417 1411.45 477.383C1411.45 477.803 1411.38 478.244 1411.3 478.559ZM1401.68 478.475L1403.28 479.525C1405.04 478.055 1406.39 476.018 1407.02 473.771C1407.58 471.671 1407.65 467.156 1407.65 464.825C1407.65 464.216 1407.73 463.565 1407.75 463.334H1405.82C1405.92 463.775 1405.97 464.237 1405.97 464.846C1405.97 467.198 1405.97 471.377 1405.34 473.309C1404.71 475.346 1403.47 477.215 1401.68 478.475ZM1437.09 461.948L1435.98 462.431C1436.54 463.229 1437.24 464.489 1437.66 465.329L1438.79 464.825C1438.37 463.985 1437.61 462.704 1437.09 461.948ZM1439.38 461.108L1438.29 461.591C1438.87 462.368 1439.57 463.565 1440.01 464.468L1441.14 463.964C1440.74 463.187 1439.94 461.885 1439.38 461.108ZM1429.15 464.531C1429.38 465.623 1431.63 477.047 1431.86 478.349C1432.01 478.979 1432.07 479.609 1432.17 480.323L1434.09 479.966C1433.9 479.378 1433.73 478.664 1433.58 478.055C1433.29 476.669 1430.98 465.161 1430.83 464.216C1430.77 463.754 1430.66 463.166 1430.64 462.767L1428.75 463.082C1428.9 463.523 1429.05 463.985 1429.15 464.531ZM1423.23 467.555L1423.59 469.424C1424.22 469.298 1424.7 469.193 1425.29 469.088C1427.11 468.773 1434.27 467.639 1436.46 467.282C1437 467.198 1437.66 467.114 1437.97 467.072L1437.61 465.308C1437.26 465.413 1436.73 465.539 1436.12 465.665C1434.13 466.043 1426.86 467.198 1424.97 467.408C1424.3 467.492 1423.75 467.534 1423.23 467.555ZM1423.17 473.624L1423.54 475.451C1424.01 475.325 1424.57 475.199 1425.39 475.073C1427.53 474.674 1435.09 473.456 1437.89 473.015C1438.66 472.889 1439.34 472.763 1439.78 472.721L1439.44 470.957C1438.98 471.104 1438.39 471.23 1437.57 471.377C1435.07 471.839 1427.24 473.141 1425.01 473.435C1424.47 473.519 1423.65 473.603 1423.17 473.624ZM1444.44 469.907V471.965C1445.11 471.923 1446.22 471.881 1447.38 471.881C1448.93 471.881 1457.31 471.881 1458.91 471.881C1459.83 471.881 1460.71 471.944 1461.15 471.965V469.907C1460.67 469.949 1459.94 470.033 1458.89 470.033C1457.33 470.033 1448.91 470.033 1447.38 470.033C1446.18 470.033 1445.09 469.97 1444.44 469.907ZM1468.95 461.423C1467.77 464.615 1465.8 467.765 1463.74 469.802C1464.03 470.159 1464.47 470.999 1464.64 471.356C1466.91 469.004 1469.07 465.434 1470.44 461.885L1468.95 461.423ZM1466.72 466.862V480.659H1468.27V465.35L1468.25 465.329L1466.72 466.862ZM1470.33 465.854V467.366H1483.23V465.854H1470.33ZM1469.81 472.553V474.107H1483.48V472.553H1469.81ZM1473.04 461.591V473.393H1474.59V461.591H1473.04ZM1478.69 461.57V473.414H1480.22V461.57H1478.69ZM1473.48 475.283C1472.58 476.9 1471.13 478.559 1469.68 479.651C1470.04 479.861 1470.65 480.365 1470.94 480.638C1472.35 479.441 1473.94 477.572 1474.97 475.745L1473.48 475.283ZM1478.25 476.039C1479.66 477.446 1481.21 479.399 1481.92 480.701L1483.25 479.861C1482.49 478.58 1480.94 476.711 1479.49 475.325L1478.25 476.039ZM1494.94 468.29V469.739H1501.94V468.29H1494.94ZM1494.84 478.055V479.483H1502.4V478.055H1494.84ZM1498.28 463.187C1499.54 465.245 1501.89 467.933 1503.95 469.634C1504.2 469.172 1504.58 468.584 1504.94 468.206C1502.82 466.652 1500.47 463.943 1498.98 461.57H1497.44C1496.35 463.796 1494.06 466.673 1491.79 468.416C1492.11 468.752 1492.53 469.34 1492.72 469.76C1494.99 467.954 1497.13 465.266 1498.28 463.187ZM1494.04 472.259V480.68H1495.49V473.687H1501.56V480.596H1503.07V472.259H1494.04ZM1488.41 461.381C1487.87 462.767 1486.9 464.783 1486.1 465.98L1487.19 466.484C1488.01 465.329 1489 463.46 1489.8 461.927L1488.41 461.381ZM1490.76 463.775C1489.65 466.043 1487.68 469.235 1486.12 471.125L1487.09 471.671C1488.64 469.823 1490.66 466.778 1492.09 464.363L1490.76 463.775ZM1485.09 465.791C1486.23 466.799 1487.55 468.269 1488.12 469.256L1488.96 468.059C1488.39 467.114 1487.07 465.749 1485.89 464.762L1485.09 465.791ZM1490.03 468.647C1490.87 470.033 1491.65 471.881 1491.94 473.057L1493.12 472.511C1492.82 471.356 1491.98 469.55 1491.12 468.206L1490.03 468.647ZM1485.03 470.789L1485.16 472.217C1487.07 472.091 1489.61 471.944 1492.13 471.776L1492.15 470.474C1489.48 470.621 1486.86 470.726 1485.03 470.789ZM1490.58 473.603C1491.1 474.821 1491.67 476.438 1491.86 477.488L1493.07 477.068C1492.86 476.018 1492.3 474.422 1491.71 473.246L1490.58 473.603ZM1486.21 473.372C1485.96 475.22 1485.54 477.089 1484.84 478.37C1485.18 478.517 1485.81 478.811 1486.08 478.979C1486.75 477.635 1487.28 475.598 1487.57 473.624L1486.21 473.372ZM1488.48 471.377V480.743H1489.88V471.377H1488.48ZM1511.62 462.872L1510.69 464.3C1511.91 464.993 1514.2 466.505 1515.21 467.282L1516.2 465.854C1515.27 465.182 1512.86 463.565 1511.62 462.872ZM1508.47 477.887L1509.45 479.588C1511.39 479.189 1514.28 478.223 1516.41 476.984C1519.77 475.01 1522.66 472.301 1524.49 469.487L1523.46 467.744C1521.78 470.705 1519.01 473.456 1515.52 475.451C1513.38 476.648 1510.78 477.488 1508.47 477.887ZM1508.47 467.597L1507.52 469.025C1508.8 469.697 1511.07 471.146 1512.1 471.902L1513.07 470.432C1512.16 469.781 1509.71 468.269 1508.47 467.597ZM1543.1 464.972L1542.05 464.153C1541.71 464.258 1541.14 464.321 1540.47 464.321C1539.67 464.321 1533.18 464.321 1532.37 464.321C1531.71 464.321 1530.52 464.237 1530.24 464.195V466.085C1530.48 466.064 1531.61 465.98 1532.37 465.98C1533.08 465.98 1539.8 465.98 1540.56 465.98C1540.01 467.723 1538.48 470.222 1537.05 471.839C1534.89 474.233 1531.8 476.753 1528.4 478.055L1529.74 479.462C1533.06 477.95 1536.06 475.451 1538.41 472.826C1540.16 470.894 1541.75 467.954 1542.59 465.875C1542.7 465.602 1542.97 465.14 1543.1 464.972ZM1538.69 471.734L1537.49 472.91C1539.76 474.905 1542.21 477.593 1543.73 479.588L1545.18 478.307C1543.75 476.564 1540.95 473.624 1538.69 471.734ZM1551.81 463.481V465.224C1552.36 465.182 1553.05 465.14 1553.74 465.14C1554.94 465.14 1561.05 465.14 1562.23 465.14C1562.82 465.14 1563.55 465.182 1564.18 465.224V463.481C1563.57 463.544 1562.82 463.586 1562.23 463.586C1561.05 463.586 1554.94 463.586 1553.72 463.586C1553.03 463.586 1552.42 463.544 1551.81 463.481ZM1549.31 468.752V470.495C1549.88 470.453 1550.51 470.432 1551.14 470.432C1552.36 470.432 1563.76 470.432 1564.87 470.432C1565.4 470.432 1566.05 470.453 1566.53 470.474V468.752C1566.01 468.815 1565.31 468.836 1564.87 468.836C1563.76 468.836 1552.36 468.836 1551.14 468.836C1550.49 468.836 1549.88 468.815 1549.31 468.752ZM1559.2 469.592L1557.44 469.613C1557.42 471.923 1557.25 473.981 1556.2 475.64C1555.38 476.984 1553.87 478.181 1552.25 478.874L1553.81 480.008C1555.57 479.084 1557.17 477.593 1557.92 476.186C1558.87 474.422 1559.2 472.238 1559.2 469.592ZM1578.64 463.355L1576.54 462.914C1576.48 463.481 1576.4 463.964 1576.12 464.93C1575.49 467.156 1573.06 474.758 1572.01 477.173L1573.9 477.11C1574.8 474.989 1577.24 467.45 1577.91 465.308C1578.2 464.405 1578.43 463.859 1578.64 463.355ZM1582.63 470.39L1581.04 471.083C1582.55 473.078 1584.69 477.446 1585.53 479.714L1587.28 478.937C1586.41 476.774 1584.1 472.532 1582.63 470.39ZM1571.19 476.669C1570.58 476.711 1569.85 476.732 1569.22 476.711L1569.55 478.643C1570.14 478.559 1570.77 478.475 1571.29 478.433C1574.26 478.139 1581.98 477.299 1584.9 476.921L1584.44 475.283C1581.73 475.682 1574.21 476.522 1571.19 476.669Z" fill="#E0AD41"/>
<path d="M1379.73 507.818H1382.36L1388.53 522.911H1388.75L1394.93 507.818H1397.55V526H1395.5V512.186H1395.32L1389.64 526H1387.65L1381.97 512.186H1381.79V526H1379.73V507.818ZM1402.72 526H1400.41L1407.08 507.818H1409.36L1416.03 526H1413.72L1408.29 510.695H1408.15L1402.72 526ZM1403.57 518.898H1412.87V520.851H1403.57V518.898ZM1421.07 507.818V526H1418.86V507.818H1421.07ZM1439.9 507.818V526H1437.77L1427.86 511.724H1427.68V526H1425.48V507.818H1427.61L1437.55 522.129H1437.73V507.818H1439.9ZM1451.33 526V507.818H1462.31V509.771H1453.54V515.915H1461.74V517.868H1453.54V524.047H1462.45V526H1451.33ZM1480.69 507.818V526H1478.56L1468.66 511.724H1468.48V526H1466.28V507.818H1468.41L1478.35 522.129H1478.53V507.818H1480.69ZM1485.1 526V507.818H1496.07V509.771H1487.3V515.915H1495.5V517.868H1487.3V524.047H1496.21V526H1485.1ZM1500.04 526V507.818H1506.18C1507.6 507.818 1508.77 508.061 1509.68 508.546C1510.59 509.026 1511.27 509.685 1511.71 510.526C1512.14 511.366 1512.36 512.322 1512.36 513.393C1512.36 514.465 1512.14 515.415 1511.71 516.243C1511.27 517.072 1510.6 517.723 1509.69 518.196C1508.79 518.664 1507.63 518.898 1506.22 518.898H1501.25V516.909H1506.15C1507.12 516.909 1507.9 516.767 1508.49 516.483C1509.09 516.199 1509.52 515.796 1509.79 515.276C1510.06 514.749 1510.2 514.121 1510.2 513.393C1510.2 512.665 1510.06 512.029 1509.79 511.485C1509.52 510.94 1509.08 510.52 1508.48 510.224C1507.89 509.922 1507.1 509.771 1506.11 509.771H1502.24V526H1500.04ZM1508.6 517.832L1513.07 526H1510.52L1506.11 517.832H1508.6ZM1528.46 513.5C1528.27 512.902 1528.01 512.367 1527.69 511.893C1527.37 511.414 1527 511.005 1526.56 510.668C1526.13 510.331 1525.64 510.073 1525.09 509.896C1524.54 509.718 1523.93 509.629 1523.28 509.629C1522.2 509.629 1521.22 509.907 1520.34 510.464C1519.46 511.02 1518.75 511.84 1518.23 512.923C1517.71 514.006 1517.45 515.335 1517.45 516.909C1517.45 518.483 1517.72 519.812 1518.24 520.895C1518.77 521.978 1519.48 522.798 1520.38 523.354C1521.28 523.911 1522.29 524.189 1523.42 524.189C1524.46 524.189 1525.38 523.967 1526.17 523.523C1526.97 523.073 1527.59 522.44 1528.03 521.623C1528.48 520.801 1528.71 519.833 1528.71 518.72L1529.38 518.862H1523.92V516.909H1530.84V518.862C1530.84 520.36 1530.52 521.662 1529.88 522.768C1529.25 523.875 1528.37 524.733 1527.25 525.343C1526.14 525.947 1524.86 526.249 1523.42 526.249C1521.81 526.249 1520.39 525.87 1519.17 525.112C1517.96 524.355 1517.01 523.277 1516.33 521.881C1515.66 520.484 1515.32 518.827 1515.32 516.909C1515.32 515.471 1515.51 514.178 1515.9 513.029C1516.29 511.875 1516.84 510.893 1517.55 510.082C1518.26 509.271 1519.1 508.65 1520.07 508.218C1521.04 507.786 1522.11 507.57 1523.28 507.57C1524.23 507.57 1525.13 507.715 1525.96 508.005C1526.79 508.289 1527.53 508.694 1528.19 509.221C1528.84 509.742 1529.39 510.366 1529.83 511.094C1530.27 511.816 1530.57 512.618 1530.73 513.5H1528.46ZM1532.49 507.818H1535.01L1540.05 516.305H1540.26L1545.31 507.818H1547.83L1541.26 518.507V526H1539.06V518.507L1532.49 507.818ZM1372.74 542.364C1372.63 541.464 1372.2 540.766 1371.44 540.268C1370.69 539.771 1369.76 539.523 1368.66 539.523C1367.85 539.523 1367.15 539.653 1366.54 539.913C1365.95 540.174 1365.48 540.532 1365.14 540.988C1364.81 541.443 1364.64 541.961 1364.64 542.541C1364.64 543.027 1364.76 543.444 1364.99 543.793C1365.23 544.136 1365.53 544.423 1365.9 544.654C1366.26 544.879 1366.65 545.065 1367.05 545.213C1367.45 545.355 1367.82 545.471 1368.16 545.56L1370.01 546.057C1370.48 546.181 1371.01 546.353 1371.59 546.572C1372.17 546.791 1372.73 547.09 1373.26 547.468C1373.8 547.841 1374.25 548.321 1374.6 548.907C1374.94 549.493 1375.12 550.212 1375.12 551.064C1375.12 552.046 1374.86 552.934 1374.35 553.727C1373.84 554.52 1373.09 555.151 1372.11 555.618C1371.13 556.086 1369.95 556.32 1368.55 556.32C1367.25 556.32 1366.12 556.109 1365.17 555.689C1364.22 555.269 1363.47 554.683 1362.93 553.931C1362.39 553.18 1362.09 552.307 1362.02 551.312H1364.29C1364.35 551.999 1364.58 552.567 1364.98 553.017C1365.39 553.461 1365.9 553.792 1366.53 554.011C1367.15 554.224 1367.83 554.331 1368.55 554.331C1369.39 554.331 1370.14 554.195 1370.81 553.923C1371.48 553.644 1372.01 553.26 1372.4 552.768C1372.79 552.271 1372.99 551.691 1372.99 551.028C1372.99 550.425 1372.82 549.933 1372.48 549.555C1372.15 549.176 1371.7 548.868 1371.15 548.631C1370.6 548.395 1370.01 548.187 1369.37 548.01L1367.13 547.371C1365.71 546.962 1364.58 546.379 1363.76 545.622C1362.93 544.864 1362.51 543.873 1362.51 542.648C1362.51 541.63 1362.79 540.742 1363.34 539.984C1363.89 539.221 1364.64 538.629 1365.58 538.209C1366.52 537.783 1367.57 537.57 1368.73 537.57C1369.9 537.57 1370.94 537.78 1371.85 538.2C1372.76 538.614 1373.49 539.182 1374.02 539.904C1374.56 540.627 1374.84 541.446 1374.87 542.364H1372.74ZM1390.67 537.818H1392.87V549.857C1392.87 551.099 1392.58 552.209 1391.99 553.186C1391.41 554.156 1390.59 554.923 1389.53 555.485C1388.48 556.041 1387.23 556.32 1385.81 556.32C1384.38 556.32 1383.14 556.041 1382.08 555.485C1381.02 554.923 1380.2 554.156 1379.61 553.186C1379.03 552.209 1378.74 551.099 1378.74 549.857V537.818H1380.94V549.679C1380.94 550.567 1381.14 551.357 1381.53 552.049C1381.92 552.736 1382.47 553.277 1383.2 553.674C1383.92 554.065 1384.79 554.26 1385.81 554.26C1386.82 554.26 1387.69 554.065 1388.42 553.674C1389.14 553.277 1389.7 552.736 1390.09 552.049C1390.48 551.357 1390.67 550.567 1390.67 549.679V537.818ZM1397.27 556V537.818H1403.41C1404.84 537.818 1406.01 538.076 1406.91 538.591C1407.82 539.1 1408.5 539.789 1408.94 540.659C1409.37 541.529 1409.59 542.5 1409.59 543.571C1409.59 544.642 1409.37 545.616 1408.94 546.492C1408.5 547.368 1407.83 548.066 1406.93 548.587C1406.02 549.102 1404.86 549.359 1403.45 549.359H1399.05V547.406H1403.38C1404.35 547.406 1405.14 547.238 1405.73 546.9C1406.32 546.563 1406.75 546.107 1407.02 545.533C1407.29 544.953 1407.43 544.299 1407.43 543.571C1407.43 542.843 1407.29 542.192 1407.02 541.618C1406.75 541.044 1406.32 540.594 1405.72 540.268C1405.12 539.937 1404.33 539.771 1403.34 539.771H1399.47V556H1397.27ZM1413.14 556V537.818H1419.28C1420.71 537.818 1421.87 538.076 1422.78 538.591C1423.69 539.1 1424.37 539.789 1424.8 540.659C1425.24 541.529 1425.46 542.5 1425.46 543.571C1425.46 544.642 1425.24 545.616 1424.8 546.492C1424.37 547.368 1423.7 548.066 1422.8 548.587C1421.89 549.102 1420.73 549.359 1419.32 549.359H1414.91V547.406H1419.25C1420.22 547.406 1421.01 547.238 1421.6 546.9C1422.19 546.563 1422.62 546.107 1422.89 545.533C1423.16 544.953 1423.29 544.299 1423.29 543.571C1423.29 542.843 1423.16 542.192 1422.89 541.618C1422.62 541.044 1422.19 540.594 1421.59 540.268C1420.99 539.937 1420.2 539.771 1419.21 539.771H1415.34V556H1413.14ZM1429.01 556V537.818H1431.21V554.047H1439.66V556H1429.01ZM1440.65 537.818H1443.17L1448.22 546.305H1448.43L1453.47 537.818H1455.99L1449.42 548.507V556H1447.22V548.507L1440.65 537.818ZM1475.82 542.364C1475.71 541.464 1475.28 540.766 1474.52 540.268C1473.76 539.771 1472.83 539.523 1471.73 539.523C1470.93 539.523 1470.22 539.653 1469.62 539.913C1469.02 540.174 1468.55 540.532 1468.22 540.988C1467.89 541.443 1467.72 541.961 1467.72 542.541C1467.72 543.027 1467.84 543.444 1468.07 543.793C1468.3 544.136 1468.6 544.423 1468.97 544.654C1469.34 544.879 1469.72 545.065 1470.13 545.213C1470.53 545.355 1470.9 545.471 1471.24 545.56L1473.08 546.057C1473.56 546.181 1474.08 546.353 1474.66 546.572C1475.25 546.791 1475.81 547.09 1476.34 547.468C1476.88 547.841 1477.32 548.321 1477.67 548.907C1478.02 549.493 1478.2 550.212 1478.2 551.064C1478.2 552.046 1477.94 552.934 1477.42 553.727C1476.91 554.52 1476.17 555.151 1475.19 555.618C1474.21 556.086 1473.02 556.32 1471.63 556.32C1470.32 556.32 1469.2 556.109 1468.24 555.689C1467.3 555.269 1466.55 554.683 1466.01 553.931C1465.47 553.18 1465.16 552.307 1465.09 551.312H1467.36C1467.42 551.999 1467.65 552.567 1468.06 553.017C1468.47 553.461 1468.98 553.792 1469.6 554.011C1470.23 554.224 1470.9 554.331 1471.63 554.331C1472.47 554.331 1473.22 554.195 1473.89 553.923C1474.56 553.644 1475.09 553.26 1475.48 552.768C1475.87 552.271 1476.06 551.691 1476.06 551.028C1476.06 550.425 1475.9 549.933 1475.56 549.555C1475.22 549.176 1474.78 548.868 1474.23 548.631C1473.68 548.395 1473.08 548.187 1472.44 548.01L1470.21 547.371C1468.79 546.962 1467.66 546.379 1466.83 545.622C1466 544.864 1465.59 543.873 1465.59 542.648C1465.59 541.63 1465.86 540.742 1466.41 539.984C1466.97 539.221 1467.72 538.629 1468.65 538.209C1469.59 537.783 1470.64 537.57 1471.8 537.57C1472.98 537.57 1474.02 537.78 1474.93 538.2C1475.84 538.614 1476.56 539.182 1477.09 539.904C1477.63 540.627 1477.92 541.446 1477.95 542.364H1475.82ZM1480.25 537.818H1482.77L1487.82 546.305H1488.03L1493.07 537.818H1495.59L1489.02 548.507V556H1486.82V548.507L1480.25 537.818ZM1508.38 542.364C1508.28 541.464 1507.85 540.766 1507.09 540.268C1506.33 539.771 1505.4 539.523 1504.3 539.523C1503.5 539.523 1502.79 539.653 1502.19 539.913C1501.59 540.174 1501.12 540.532 1500.79 540.988C1500.45 541.443 1500.29 541.961 1500.29 542.541C1500.29 543.027 1500.4 543.444 1500.63 543.793C1500.87 544.136 1501.17 544.423 1501.54 544.654C1501.91 544.879 1502.29 545.065 1502.69 545.213C1503.1 545.355 1503.47 545.471 1503.8 545.56L1505.65 546.057C1506.12 546.181 1506.65 546.353 1507.23 546.572C1507.82 546.791 1508.38 547.09 1508.91 547.468C1509.45 547.841 1509.89 548.321 1510.24 548.907C1510.59 549.493 1510.76 550.212 1510.76 551.064C1510.76 552.046 1510.51 552.934 1509.99 553.727C1509.48 554.52 1508.74 555.151 1507.75 555.618C1506.78 556.086 1505.59 556.32 1504.19 556.32C1502.89 556.32 1501.76 556.109 1500.81 555.689C1499.86 555.269 1499.12 554.683 1498.57 553.931C1498.04 553.18 1497.73 552.307 1497.66 551.312H1499.93C1499.99 551.999 1500.22 552.567 1500.63 553.017C1501.03 553.461 1501.55 553.792 1502.17 554.011C1502.8 554.224 1503.47 554.331 1504.19 554.331C1505.03 554.331 1505.79 554.195 1506.46 553.923C1507.13 553.644 1507.66 553.26 1508.05 552.768C1508.44 552.271 1508.63 551.691 1508.63 551.028C1508.63 550.425 1508.46 549.933 1508.13 549.555C1507.79 549.176 1507.35 548.868 1506.8 548.631C1506.25 548.395 1505.65 548.187 1505.01 548.01L1502.77 547.371C1501.35 546.962 1500.23 546.379 1499.4 545.622C1498.57 544.864 1498.16 543.873 1498.16 542.648C1498.16 541.63 1498.43 540.742 1498.98 539.984C1499.54 539.221 1500.29 538.629 1501.22 538.209C1502.16 537.783 1503.21 537.57 1504.37 537.57C1505.54 537.57 1506.59 537.78 1507.5 538.2C1508.41 538.614 1509.13 539.182 1509.66 539.904C1510.2 540.627 1510.49 541.446 1510.52 542.364H1508.38ZM1513.39 539.771V537.818H1527.03V539.771H1521.31V556H1519.11V539.771H1513.39ZM1530.42 556V537.818H1541.4V539.771H1532.63V545.915H1540.83V547.868H1532.63V554.047H1541.54V556H1530.42ZM1545.37 537.818H1547.99L1554.17 552.911H1554.39L1560.56 537.818H1563.19V556H1561.13V542.186H1560.95L1555.27 556H1553.28L1547.6 542.186H1547.42V556H1545.37V537.818Z" fill="#E0AD41"/>
<rect x="1327.5" y="259.5" width="271" height="149" fill="black" stroke="#E0AD41" stroke-width="3"/>
<mask id="mask0_2_13" style="mask-type:alpha" maskUnits="userSpaceOnUse" x="1511" y="261" width="86" height="146">
<rect x="1511" y="261" width="86" height="146" fill="black"/>
</mask>
<g mask="url(#mask0_2_13)">
<rect width="23.7537" height="268.047" transform="matrix(0.766044 0.642788 -0.726869 0.686776 1523.25 192.841)" fill="#BD1900"/>
<rect width="23.7537" height="268.047" transform="matrix(0.766044 0.642788 -0.726869 0.686776 1549.87 215.178)" fill="#BD1900"/>
<rect width="23.7537" height="268.047" transform="matrix(0.766044 0.642788 -0.726869 0.686776 1576.49 237.516)" fill="#BD1900"/>
<rect width="23.7537" height="268.047" transform="matrix(0.766044 0.642788 -0.726869 0.686776 1603.11 259.853)" fill="#BD1900"/>
<rect width="23.7537" height="268.047" transform="matrix(0.766044 0.642788 -0.726869 0.686776 1629.73 282.191)" fill="#BD1900"/>
<rect width="23.7537" height="268.047" transform="matrix(0.766044 0.642788 -0.726869 0.686776 1656.35 304.528)" fill="#BD1900"/>
<rect width="23.7537" height="268.047" transform="matrix(0.766044 0.642788 -0.726869 0.686776 1682.97 326.865)" fill="#BD1900"/>
<rect width="23.7537" height="268.047" transform="matrix(0.766044 0.642788 -0.726869 0.686776 1709.59 349.203)" fill="#BD1900"/>
<rect width="23.7537" height="268.047" transform="matrix(0.766044 0.642788 -0.726869 0.686776 1736.21 371.54)" fill="#BD1900"/>
</g>
<path d="M1395.3 288.47C1399.89 292.61 1405.65 298.37 1408.35 301.925L1411.14 299.765C1408.26 296.255 1402.41 290.63 1397.82 286.67L1395.3 288.47ZM1395.79 270.2V279.02C1395.79 285.23 1395.21 293.915 1383.96 299.99C1384.72 300.575 1385.89 301.79 1386.34 302.51C1397.95 295.715 1399.26 286.22 1399.26 279.02V270.2H1395.79ZM1379.41 277.895V311.69H1382.79V281.225H1413.84V277.895H1379.41ZM1412.31 277.895V307.145C1412.31 307.91 1412.04 308.18 1411.18 308.225C1410.28 308.27 1407.22 308.27 1404.03 308.135C1404.48 309.08 1405.02 310.655 1405.15 311.6C1409.2 311.6 1411.99 311.555 1413.57 311.015C1415.1 310.43 1415.64 309.35 1415.64 307.145V277.895H1412.31ZM1447 272.9V311.645H1450.29V276.095H1460.5V272.9H1447ZM1423.02 275.195V278.21H1444.53V275.195H1423.02ZM1421.85 287.66V290.765H1445.11V287.66H1421.85ZM1432.06 270.38V277.04H1435.35V270.38H1432.06ZM1425.81 279.785C1426.75 282.08 1427.52 285.14 1427.74 287.12L1430.76 286.4C1430.49 284.42 1429.63 281.405 1428.64 279.155L1425.81 279.785ZM1438.72 278.84C1438.18 281.135 1437.1 284.465 1436.2 286.535L1438.9 287.255C1439.89 285.275 1440.97 282.26 1441.96 279.605L1438.72 278.84ZM1426.08 306.02V309.035H1440.88V306.02H1426.08ZM1424.86 294.68V311.645H1428.01V297.695H1439.35V311.42H1442.59V294.68H1424.86ZM1459.6 272.9V273.98C1458.25 277.535 1455.82 283.745 1453.53 288.38C1458.07 292.34 1459.38 295.715 1459.42 298.55C1459.42 300.215 1459.11 301.52 1458.12 302.105C1457.58 302.42 1456.95 302.6 1456.18 302.645C1455.28 302.69 1453.98 302.645 1452.67 302.555C1453.26 303.5 1453.57 304.94 1453.62 305.885C1454.92 305.93 1456.41 305.975 1457.53 305.84C1458.7 305.66 1459.69 305.345 1460.5 304.85C1462.08 303.77 1462.71 301.655 1462.71 298.91C1462.66 295.67 1461.58 292.115 1457.04 287.93C1459.11 283.79 1461.45 278.57 1463.29 274.34L1460.82 272.765L1460.28 272.9H1459.6Z" fill="#E0AD41"/>
<path d="M1342.9 342.273V367H1339.9V342.273H1342.9ZM1368.51 342.273V367H1365.61L1352.14 347.585H1351.9V367H1348.9V342.273H1351.8L1365.32 361.736H1365.56V342.273H1368.51ZM1373.15 344.929V342.273H1391.69V344.929H1383.92V367H1380.92V344.929H1373.15ZM1396.32 367V342.273H1411.24V344.929H1399.31V353.284H1410.47V355.94H1399.31V364.344H1411.43V367H1396.32ZM1416.64 367V342.273H1424.99C1426.92 342.273 1428.51 342.603 1429.75 343.263C1430.99 343.915 1431.91 344.812 1432.5 345.955C1433.1 347.098 1433.39 348.398 1433.39 349.855C1433.39 351.312 1433.1 352.604 1432.5 353.731C1431.91 354.858 1430.99 355.743 1429.76 356.387C1428.53 357.023 1426.96 357.341 1425.04 357.341H1418.28V354.636H1424.94C1426.26 354.636 1427.33 354.443 1428.13 354.057C1428.94 353.67 1429.53 353.123 1429.89 352.415C1430.26 351.698 1430.45 350.845 1430.45 349.855C1430.45 348.865 1430.26 348 1429.89 347.259C1429.52 346.519 1428.93 345.947 1428.12 345.545C1427.31 345.134 1426.23 344.929 1424.89 344.929H1419.63V367H1416.64ZM1428.28 355.892L1434.36 367H1430.88L1424.89 355.892H1428.28ZM1457.99 342.273V367H1455.09L1441.62 347.585H1441.38V367H1438.38V342.273H1441.28L1454.8 361.736H1455.05V342.273H1457.99ZM1465 367H1461.86L1470.94 342.273H1474.03L1483.11 367H1479.97L1472.58 346.185H1472.39L1465 367ZM1466.16 357.341H1478.81V359.997H1466.16V357.341ZM1486.96 367V342.273H1489.95V364.344H1501.45V367H1486.96Z" fill="#E0AD41"/>
<path d="M502.548 324H497.47L512.157 284H517.157L531.845 324H526.767L514.813 290.328H514.501L502.548 324ZM504.423 308.375H524.892V312.672H504.423V308.375ZM568.383 296.5H563.539C563.253 295.107 562.751 293.883 562.035 292.828C561.332 291.773 560.473 290.888 559.457 290.172C558.454 289.443 557.341 288.896 556.117 288.531C554.893 288.167 553.617 287.984 552.289 287.984C549.867 287.984 547.673 288.596 545.707 289.82C543.754 291.044 542.198 292.848 541.039 295.23C539.893 297.613 539.32 300.536 539.32 304C539.32 307.464 539.893 310.387 541.039 312.77C542.198 315.152 543.754 316.956 545.707 318.18C547.673 319.404 549.867 320.016 552.289 320.016C553.617 320.016 554.893 319.833 556.117 319.469C557.341 319.104 558.454 318.564 559.457 317.848C560.473 317.118 561.332 316.227 562.035 315.172C562.751 314.104 563.253 312.88 563.539 311.5H568.383C568.018 313.544 567.354 315.374 566.391 316.988C565.427 318.603 564.229 319.977 562.797 321.109C561.365 322.229 559.757 323.082 557.973 323.668C556.202 324.254 554.307 324.547 552.289 324.547C548.878 324.547 545.844 323.714 543.188 322.047C540.531 320.38 538.441 318.01 536.918 314.937C535.395 311.865 534.633 308.219 534.633 304C534.633 299.781 535.395 296.135 536.918 293.062C538.441 289.99 540.531 287.62 543.188 285.953C545.844 284.286 548.878 283.453 552.289 283.453C554.307 283.453 556.202 283.746 557.973 284.332C559.757 284.918 561.365 285.777 562.797 286.91C564.229 288.03 565.427 289.397 566.391 291.012C567.354 292.613 568.018 294.443 568.383 296.5ZM574.022 288.297V284H604.022V288.297H591.444V324H586.601V288.297H574.022ZM616.342 284V324H611.498V284H616.342ZM627.694 284L639.569 317.672H640.038L651.913 284H656.991L642.304 324H637.304L622.616 284H627.694ZM663.222 324V284H687.362V288.297H668.065V301.812H686.112V306.109H668.065V319.703H687.675V324H663.222ZM709.374 288.297V284H739.374V288.297H726.796V324H721.952V288.297H709.374ZM751.693 284V324H746.85V284H751.693ZM761.405 284H767.187L780.78 317.203H781.249L794.843 284H800.624V324H796.093V293.609H795.702L783.202 324H778.827L766.327 293.609H765.937V324H761.405V284ZM810.336 324V284H834.477V288.297H815.18V301.812H833.227V306.109H815.18V319.703H834.789V324H810.336ZM858.676 324V284H872.191C875.316 284 877.882 284.534 879.887 285.602C881.892 286.656 883.376 288.108 884.34 289.957C885.303 291.806 885.785 293.909 885.785 296.266C885.785 298.622 885.303 300.712 884.34 302.535C883.376 304.358 881.898 305.79 879.906 306.832C877.914 307.861 875.368 308.375 872.27 308.375H861.332V304H872.113C874.249 304 875.967 303.687 877.27 303.062C878.585 302.437 879.535 301.552 880.121 300.406C880.72 299.247 881.02 297.867 881.02 296.266C881.02 294.664 880.72 293.264 880.121 292.066C879.522 290.868 878.565 289.944 877.25 289.293C875.935 288.629 874.197 288.297 872.035 288.297H863.52V324H858.676ZM877.504 306.031L887.348 324H881.723L872.035 306.031H877.504ZM893.856 324V284H917.997V288.297H898.7V301.812H916.747V306.109H898.7V319.703H918.31V324H893.856ZM926.728 284H932.509L946.103 317.203H946.571L960.165 284H965.946V324H961.415V293.609H961.024L948.524 324H944.149L931.649 293.609H931.259V324H926.728V284ZM977.299 324H972.221L986.908 284H991.908L1006.6 324H1001.52L989.564 290.328H989.252L977.299 324ZM979.174 308.375H999.643V312.672H979.174V308.375ZM1017.67 284V324H1012.83V284H1017.67ZM1059.1 284V324H1054.41L1032.62 292.594H1032.23V324H1027.38V284H1032.07L1053.94 315.484H1054.33V284H1059.1ZM1073.64 284V324H1068.79V284H1073.64ZM1115.07 284V324H1110.38L1088.58 292.594H1088.19V324H1083.35V284H1088.04L1109.91 315.484H1110.3V284H1115.07ZM1152.1 296.5C1151.67 295.185 1151.11 294.007 1150.4 292.965C1149.71 291.91 1148.89 291.012 1147.92 290.27C1146.97 289.527 1145.89 288.961 1144.68 288.57C1143.47 288.18 1142.14 287.984 1140.7 287.984C1138.33 287.984 1136.17 288.596 1134.23 289.82C1132.29 291.044 1130.75 292.848 1129.6 295.23C1128.46 297.613 1127.88 300.536 1127.88 304C1127.88 307.464 1128.46 310.387 1129.62 312.77C1130.78 315.152 1132.35 316.956 1134.33 318.18C1136.31 319.404 1138.54 320.016 1141.01 320.016C1143.3 320.016 1145.32 319.527 1147.06 318.551C1148.82 317.561 1150.19 316.168 1151.17 314.371C1152.16 312.561 1152.65 310.432 1152.65 307.984L1154.13 308.297H1142.1V304H1157.34V308.297C1157.34 311.591 1156.63 314.456 1155.23 316.891C1153.84 319.326 1151.91 321.214 1149.45 322.555C1147 323.883 1144.19 324.547 1141.01 324.547C1137.47 324.547 1134.36 323.714 1131.67 322.047C1129 320.38 1126.92 318.01 1125.42 314.937C1123.94 311.865 1123.2 308.219 1123.2 304C1123.2 300.836 1123.62 297.991 1124.47 295.465C1125.33 292.926 1126.54 290.764 1128.1 288.98C1129.66 287.197 1131.51 285.829 1133.65 284.879C1135.78 283.928 1138.13 283.453 1140.7 283.453C1142.81 283.453 1144.77 283.772 1146.6 284.41C1148.43 285.035 1150.07 285.927 1151.5 287.086C1152.94 288.232 1154.15 289.605 1155.11 291.207C1156.07 292.796 1156.74 294.56 1157.1 296.5H1152.1ZM1168.37 318.883C1167.4 318.883 1166.58 318.538 1165.89 317.848C1165.2 317.158 1164.85 316.331 1164.85 315.367C1164.85 314.404 1165.2 313.577 1165.89 312.887C1166.58 312.197 1167.4 311.852 1168.37 311.852C1169.33 311.852 1170.16 312.197 1170.85 312.887C1171.54 313.577 1171.88 314.404 1171.88 315.367C1171.88 316.005 1171.72 316.591 1171.4 317.125C1171.08 317.659 1170.66 318.089 1170.13 318.414C1169.61 318.727 1169.02 318.883 1168.37 318.883ZM1168.37 298.648C1167.4 298.648 1166.58 298.303 1165.89 297.613C1165.2 296.923 1164.85 296.096 1164.85 295.133C1164.85 294.169 1165.2 293.342 1165.89 292.652C1166.58 291.962 1167.4 291.617 1168.37 291.617C1169.33 291.617 1170.16 291.962 1170.85 292.652C1171.54 293.342 1171.88 294.169 1171.88 295.133C1171.88 295.771 1171.72 296.357 1171.4 296.891C1171.08 297.424 1170.66 297.854 1170.13 298.18C1169.61 298.492 1169.02 298.648 1168.37 298.648Z" fill="#E0AD41"/>
<path d="M327.68 248.64V264.2H330.44V251.4H344.76V264H347.64V248.64H327.68ZM346.16 227.56C341.72 229.16 333.6 230.4 326.64 231.16C327 231.84 327.4 233 327.52 233.72C334.68 233.04 343.04 231.8 348.52 229.92L346.16 227.56ZM336.32 231.04V250.24H339.2V231.04H336.32ZM324.76 239.16V242.04H350.24V239.16H324.76ZM329.56 259.72V262.48H346.08V259.72H329.56ZM315.6 230.04C318.08 231.36 321.4 233.32 323.08 234.52L324.84 232.08C323.12 230.92 319.72 229.12 317.28 227.92L315.6 230.04ZM313.64 241.08C316.08 242.36 319.4 244.28 321.04 245.4L322.72 242.96C321.04 241.8 317.68 240.04 315.32 238.88L313.64 241.08ZM314.6 261.64L317.12 263.68C319.48 259.96 322.28 254.96 324.4 250.72L322.24 248.76C319.92 253.32 316.76 258.6 314.6 261.64ZM354.76 253.56V255.84H373V253.56H354.76ZM353.68 234.28V236.6H373.64V234.28H353.68ZM362.36 230.64V260.08H365.12V230.64H362.36ZM353.64 260.16L354.08 262.76C359.16 262.24 366.4 261.4 373.2 260.6L373.16 258.24C366 259 358.52 259.72 353.64 260.16ZM357.36 246.08H370.32V249.04H357.36V246.08ZM357.36 241.2H370.32V244.08H357.36V241.2ZM354.84 239.12V251.12H372.88V239.12H354.84ZM371.44 227.8C367.32 228.76 360.04 229.48 354.08 229.8C354.4 230.4 354.68 231.4 354.8 232.04C360.8 231.84 368.24 231.16 372.96 230.12L371.44 227.8ZM373.36 236.76V239.56H387.8V236.76H373.36ZM386.64 236.76V237.48C386.2 253.68 385.76 259.44 384.76 260.68C384.4 261.2 384 261.32 383.36 261.32C382.56 261.32 380.8 261.28 378.84 261.12C379.32 261.92 379.64 263.16 379.72 264C381.56 264.12 383.48 264.12 384.6 264C385.8 263.88 386.6 263.52 387.32 262.48C388.64 260.76 389.04 255.16 389.48 238.28C389.48 237.88 389.52 236.76 389.52 236.76H386.64ZM378.2 227.92C378.16 243.04 378.36 255.72 369.2 262.28C369.92 262.76 370.96 263.72 371.44 264.44C381 257.28 381.04 243.84 381.08 227.92H378.2ZM411.48 236.76V239.28H426.4V236.76H411.48ZM405.24 260.72L406.24 263.64C410.12 262.76 415.48 261.6 420.52 260.44L420.32 257.8C414.72 258.92 408.92 260.08 405.24 260.72ZM409.76 229.2V260.96H412.68V229.2H409.76ZM411.48 229.2V231.84H424.88V244.32H411.48V246.96H427.8V229.2H411.48ZM419.2 245.24L416.72 245.72C418.56 254.16 422.28 260.92 428.52 264.08C428.96 263.32 429.84 262.2 430.52 261.6C424.56 258.96 420.92 252.72 419.2 245.24ZM427.16 247.88C425.48 249.8 422.48 252.32 420.32 253.88L422.2 255.4C424.44 253.92 427.28 251.68 429.52 249.6L427.16 247.88ZM395.24 229.16V264.24H398.08V231.88H405.48V229.16H395.24ZM404.6 229.16V230C403.68 232.76 402.04 237.6 400.44 241.24C403.56 244.36 404.4 247 404.4 249.2C404.44 250.44 404.2 251.48 403.52 251.92C403.12 252.16 402.64 252.28 402.12 252.32C401.4 252.36 400.52 252.36 399.48 252.24C399.96 253.04 400.2 254.24 400.24 254.96C401.24 255.04 402.36 255.04 403.28 254.92C404.12 254.84 404.88 254.6 405.48 254.2C406.68 253.36 407.2 251.72 407.2 249.52C407.2 247.04 406.44 244.2 403.2 240.88C404.68 237.72 406.36 233.6 407.64 230.28L405.6 229.04L405.16 229.16H404.6ZM441.24 237.92H462.68V242.28H441.24V237.92ZM441.24 231.24H462.68V235.52H441.24V231.24ZM438.24 228.72V244.76H465.76V228.72H438.24ZM456.4 243.12L453.84 244.08C457 248.64 462.72 252.44 468.44 254.28C468.88 253.48 469.76 252.32 470.44 251.72C464.84 250.24 459.2 247 456.4 243.12ZM447.76 243.12C444.88 246.96 439.16 250.4 433.76 251.96C434.44 252.56 435.32 253.68 435.8 254.44C441.28 252.48 447.16 248.64 450.36 244.2L447.76 243.12ZM444.44 250.16V252.56C444.44 255.52 443.72 259.4 436.68 262.04C437.36 262.64 438.32 263.68 438.76 264.44C446.52 261.32 447.48 256.48 447.48 252.64V250.16H444.44ZM450.4 230.04V243.64H453.44V230.04H450.4ZM457.16 250.16V264.12H460.24V250.16H457.16ZM494.88 229.28H491.48C491.6 229.8 491.64 231 491.64 231.68C491.64 234.48 491.64 238.68 491.64 242.28C491.64 245.8 492.04 253.48 492.04 256.56C492.04 259.36 490.08 260.04 487.76 260.04C483.8 260.04 482.24 258.68 482.24 256.8C482.24 254.96 484.28 253.48 488.12 253.48C495.24 253.48 501.16 257.48 504.76 260.8L506.6 257.96C503.52 255.44 496.92 250.88 488.48 250.88C482.72 250.88 479.24 253.32 479.24 256.96C479.24 260.84 482.4 262.88 488.16 262.88C493.36 262.88 495.2 260.04 495.2 257.24C495.2 254.56 494.6 247.56 494.6 242.28C494.6 238.92 494.6 233.56 494.68 231.96C494.72 230.76 494.8 229.96 494.88 229.28ZM479.6 233.6L479.64 236.56C482.16 236.88 487.08 237.24 489.84 237.24C495.2 237.24 500.92 236.72 505.44 236.2V233.28C500.24 234.12 494.88 234.48 489.8 234.48C487.16 234.48 482.16 234.08 479.6 233.6ZM479.4 242.12L479.44 245.12C482.28 245.44 486.68 245.64 489.44 245.64C495.44 245.64 500.32 245.36 505.76 244.68V241.68C500.56 242.44 495.24 242.84 489.44 242.84C486.8 242.84 482.24 242.56 479.4 242.12ZM515.12 234.68L515.48 238.2C519.8 237.28 530 236.28 534.28 235.84C530.64 238 526.84 243.12 526.84 249.32C526.84 258.28 535.24 262.2 542.64 262.48L543.8 259.2C537.32 258.96 530 256.44 530 248.64C530 243.92 533.48 237.8 539.2 235.96C541.24 235.4 544.72 235.32 547.04 235.36L547 232.16C544.32 232.24 540.6 232.48 536.2 232.84C528.84 233.48 521.28 234.2 518.72 234.48C517.92 234.56 516.64 234.64 515.12 234.68ZM541.24 240.24L539.24 241.12C540.44 242.8 541.56 244.84 542.48 246.76L544.56 245.84C543.68 244.04 542.16 241.56 541.24 240.24ZM545.6 238.56L543.64 239.48C544.88 241.16 546.08 243.16 547.04 245.08L549.08 244.08C548.16 242.32 546.6 239.88 545.6 238.56Z" fill="#E0AD41"/>
<path d="M866.274 541H897.774V572.25H866.274V541ZM866.274 466.75H897.774V498.75H866.274V466.75Z" fill="#E0AD41"/>
<path d="M1339.05 668.28H1362.99V692.03H1339.05V668.28ZM1339.05 611.85H1362.99V636.17H1339.05V611.85Z" fill="#E0AD41"/>
</svg>
