<svg width="1558" height="939" viewBox="0 0 1558 939" fill="none" xmlns="http://www.w3.org/2000/svg">
<rect x="854.5" y="569.5" width="217" height="93" fill="black" stroke="#E0AD41" stroke-width="3"/>
<path d="M916.733 584.455V607H914.091L901.806 589.298H901.586V607H898.856V584.455H901.498L913.827 602.2H914.047V584.455H916.733ZM941.219 595.727C941.219 598.105 940.79 600.16 939.931 601.892C939.072 603.624 937.895 604.96 936.397 605.899C934.9 606.839 933.19 607.308 931.267 607.308C929.345 607.308 927.635 606.839 926.137 605.899C924.64 604.96 923.462 603.624 922.604 601.892C921.745 600.16 921.316 598.105 921.316 595.727C921.316 593.349 921.745 591.295 922.604 589.562C923.462 587.83 924.64 586.495 926.137 585.555C927.635 584.616 929.345 584.146 931.267 584.146C933.19 584.146 934.9 584.616 936.397 585.555C937.895 586.495 939.072 587.83 939.931 589.562C940.79 591.295 941.219 593.349 941.219 595.727ZM938.577 595.727C938.577 593.775 938.251 592.127 937.597 590.784C936.952 589.441 936.075 588.425 934.966 587.735C933.865 587.045 932.633 586.7 931.267 586.7C929.902 586.7 928.666 587.045 927.558 587.735C926.457 588.425 925.58 589.441 924.927 590.784C924.281 592.127 923.958 593.775 923.958 595.727C923.958 597.679 924.281 599.327 924.927 600.67C925.58 602.013 926.457 603.03 927.558 603.719C928.666 604.409 929.902 604.754 931.267 604.754C932.633 604.754 933.865 604.409 934.966 603.719C936.075 603.03 936.952 602.013 937.597 600.67C938.251 599.327 938.577 597.679 938.577 595.727ZM945.81 607V584.455H953.428C955.189 584.455 956.635 584.755 957.765 585.357C958.895 585.952 959.732 586.77 960.275 587.812C960.818 588.854 961.09 590.04 961.09 591.368C961.09 592.696 960.818 593.874 960.275 594.902C959.732 595.929 958.899 596.736 957.776 597.324C956.653 597.903 955.218 598.193 953.472 598.193H947.307V595.727H953.384C954.587 595.727 955.556 595.551 956.29 595.199C957.031 594.847 957.567 594.348 957.897 593.702C958.235 593.049 958.403 592.271 958.403 591.368C958.403 590.465 958.235 589.676 957.897 589.001C957.559 588.326 957.02 587.805 956.279 587.438C955.538 587.064 954.558 586.876 953.34 586.876H948.54V607H945.81ZM956.422 596.872L961.97 607H958.8L953.34 596.872H956.422ZM965.639 584.455H968.897L976.559 603.169H976.823L984.485 584.455H987.744V607H985.19V589.871H984.97L977.924 607H975.458L968.413 589.871H968.193V607H965.639V584.455ZM994.143 607H991.28L999.559 584.455H1002.38L1010.66 607H1007.79L1001.06 588.021H1000.88L994.143 607ZM995.199 598.193H1006.74V600.615H995.199V598.193ZM1014.17 607V584.455H1016.9V604.578H1027.38V607H1014.17ZM934.259 621.254V623.517H959.927V621.254H934.259ZM947.682 631.794V634.088H958.687V631.794H947.682ZM933.081 643.853V646.116H960.95V643.853H933.081ZM946.566 622.091V644.969H948.984V622.091H946.566ZM937.328 629.221V645.062H939.715V629.221H937.328ZM977.194 634.057V647.511H979.55V634.057H977.194ZM972.203 629.81H983.921V632.817H972.203V629.81ZM969.94 628.043V634.615H986.308V628.043H969.94ZM967.181 637.188V646.085H969.506V639.296H987.951V637.188H967.181ZM986.804 637.188V643.667C986.804 644.008 986.649 644.132 986.184 644.163C985.688 644.194 984.014 644.194 982.154 644.132C982.495 644.752 982.836 645.62 982.96 646.24C985.378 646.24 986.959 646.24 987.951 645.868C988.912 645.527 989.16 644.876 989.16 643.667V637.188H986.804ZM976.977 618.96V624.602H979.364V618.96H976.977ZM965.135 623.765V630.461H967.398V625.842H988.726V630.461H991.051V623.765H965.135ZM967.708 620.107C968.669 621.254 969.723 622.866 970.188 623.92L972.42 622.897C971.893 621.874 970.808 620.386 969.785 619.27L967.708 620.107ZM986.122 619.208C985.533 620.324 984.386 621.998 983.518 623.021L985.409 623.796C986.339 622.835 987.517 621.409 988.54 620.045L986.122 619.208Z" fill="#E0AD41"/>
<rect x="365.5" y="569.5" width="217" height="93" fill="black" stroke="#E0AD41" stroke-width="3"/>
<path d="M448.554 591.091C448.422 589.975 447.886 589.109 446.947 588.493C446.008 587.876 444.855 587.568 443.49 587.568C442.492 587.568 441.619 587.73 440.87 588.053C440.129 588.375 439.549 588.819 439.131 589.385C438.72 589.95 438.515 590.592 438.515 591.311C438.515 591.913 438.658 592.43 438.944 592.863C439.237 593.289 439.612 593.645 440.067 593.931C440.522 594.21 440.999 594.441 441.498 594.625C441.997 594.801 442.456 594.944 442.874 595.054L445.164 595.67C445.751 595.825 446.404 596.037 447.123 596.309C447.85 596.58 448.543 596.951 449.204 597.421C449.872 597.883 450.422 598.478 450.855 599.204C451.288 599.931 451.505 600.822 451.505 601.879C451.505 603.098 451.185 604.198 450.547 605.182C449.916 606.165 448.991 606.947 447.773 607.527C446.562 608.106 445.09 608.396 443.358 608.396C441.744 608.396 440.346 608.136 439.164 607.615C437.99 607.094 437.065 606.367 436.39 605.435C435.722 604.503 435.344 603.42 435.256 602.188H438.074C438.148 603.039 438.434 603.743 438.933 604.301C439.439 604.852 440.078 605.263 440.848 605.534C441.626 605.798 442.463 605.93 443.358 605.93C444.4 605.93 445.336 605.762 446.165 605.424C446.995 605.079 447.652 604.602 448.136 603.993C448.62 603.376 448.863 602.657 448.863 601.835C448.863 601.087 448.653 600.478 448.235 600.008C447.817 599.538 447.266 599.156 446.584 598.863C445.901 598.569 445.164 598.312 444.371 598.092L441.597 597.3C439.836 596.793 438.441 596.07 437.414 595.131C436.386 594.192 435.872 592.962 435.872 591.443C435.872 590.181 436.214 589.08 436.896 588.141C437.586 587.194 438.511 586.46 439.67 585.939C440.837 585.411 442.14 585.146 443.578 585.146C445.032 585.146 446.323 585.407 447.453 585.928C448.584 586.442 449.479 587.146 450.14 588.042C450.807 588.937 451.16 589.953 451.196 591.091H448.554ZM454.76 587.876V585.455H471.669V587.876H464.58V608H461.85V587.876H454.76ZM493.967 596.727C493.967 599.105 493.538 601.16 492.679 602.892C491.821 604.624 490.643 605.96 489.145 606.899C487.648 607.839 485.938 608.308 484.015 608.308C482.093 608.308 480.383 607.839 478.886 606.899C477.388 605.96 476.21 604.624 475.352 602.892C474.493 601.16 474.064 599.105 474.064 596.727C474.064 594.349 474.493 592.295 475.352 590.562C476.21 588.83 477.388 587.495 478.886 586.555C480.383 585.616 482.093 585.146 484.015 585.146C485.938 585.146 487.648 585.616 489.145 586.555C490.643 587.495 491.821 588.83 492.679 590.562C493.538 592.295 493.967 594.349 493.967 596.727ZM491.325 596.727C491.325 594.775 490.999 593.127 490.345 591.784C489.7 590.441 488.823 589.425 487.714 588.735C486.614 588.045 485.381 587.7 484.015 587.7C482.65 587.7 481.414 588.045 480.306 588.735C479.205 589.425 478.328 590.441 477.675 591.784C477.029 593.127 476.706 594.775 476.706 596.727C476.706 598.679 477.029 600.327 477.675 601.67C478.328 603.013 479.205 604.03 480.306 604.719C481.414 605.409 482.65 605.754 484.015 605.754C485.381 605.754 486.614 605.409 487.714 604.719C488.823 604.03 489.7 603.013 490.345 601.67C490.999 600.327 491.325 598.679 491.325 596.727ZM498.558 608V585.455H506.176C507.944 585.455 509.39 585.774 510.513 586.412C511.643 587.043 512.48 587.898 513.023 588.977C513.566 590.056 513.838 591.26 513.838 592.588C513.838 593.916 513.566 595.124 513.023 596.21C512.487 597.296 511.658 598.162 510.535 598.808C509.412 599.446 507.974 599.766 506.22 599.766H500.759V597.344H506.132C507.343 597.344 508.315 597.135 509.049 596.716C509.783 596.298 510.315 595.733 510.645 595.021C510.983 594.302 511.152 593.491 511.152 592.588C511.152 591.685 510.983 590.878 510.645 590.166C510.315 589.454 509.779 588.897 509.038 588.493C508.297 588.082 507.313 587.876 506.088 587.876H501.288V608H498.558ZM445.174 626.346L446.941 624.951C445.794 623.742 443.438 621.789 442.415 620.983L440.648 622.254C441.95 623.246 443.996 625.137 445.174 626.346ZM435.316 623.649L432.805 624.672C433.301 625.292 433.921 626.284 434.293 626.904C435.347 628.671 436.742 631.678 438.199 634.933C439.966 638.994 441.454 643.954 442.415 647.643L445.081 646.93C444.027 643.489 442.043 637.754 440.369 633.879C439.098 631.058 437.61 627.927 436.401 625.757C436.091 625.168 435.564 624.176 435.316 623.649ZM429.829 632.701L431.038 635.243C434.944 633.538 444.12 628.175 449.297 628.175C452.335 628.175 453.792 629.88 453.792 631.709C453.792 633.91 452.397 635.801 448.987 635.801C447.344 635.801 445.794 635.336 444.585 634.778L444.523 637.227C445.67 637.661 447.437 638.095 449.173 638.095C454.009 638.095 456.272 635.398 456.272 631.802C456.272 628.423 453.668 626.005 449.359 626.005C444.213 626.005 436.68 630.221 432.371 631.864C431.813 632.112 430.728 632.484 429.829 632.701ZM479.739 622.006L477.042 621.758C477.073 622.471 476.98 623.494 476.856 624.114C476.081 628.64 474.004 634.313 471.958 637.475C470.377 639.986 468.207 642.621 466.192 642.621C464.797 642.621 463.898 641.381 463.898 639.335C463.898 636.545 465.572 633.228 468.207 631.337C470.625 629.539 473.322 628.516 476.329 628.516C481.32 628.516 484.606 631.864 484.606 636.421C484.606 641.226 481.041 644.605 474.562 645.194L475.988 647.395C482.653 646.465 487.086 642.714 487.086 636.514C487.086 630.469 482.684 626.377 476.608 626.377C473.415 626.377 470.377 627.183 467.308 629.26C464.022 631.461 461.635 635.584 461.635 639.49C461.635 643.117 463.619 645.07 465.975 645.07C468.796 645.07 471.059 642.745 473.415 639.459C475.895 636.049 478.065 629.57 479.181 624.455C479.336 623.866 479.522 622.781 479.739 622.006ZM467.029 623.432L464.456 624.238C464.859 625.044 465.2 626.067 465.51 627.059C466.688 630.934 468.486 635.677 470.005 638.095C471.183 640.11 472.33 641.629 473.57 642.993L475.523 641.412C474.035 639.986 472.578 637.94 471.524 636.142C470.222 633.972 468.486 629.198 467.68 626.16C467.432 625.292 467.184 624.269 467.029 623.432ZM497.378 623.184L497.44 625.726C498.122 625.633 498.804 625.602 499.517 625.54C501.129 625.447 507.329 625.199 508.972 625.106C507.422 626.501 503.516 629.756 501.78 631.182C500.013 632.701 496.014 636.049 493.441 638.157L495.239 639.955C499.145 635.956 501.935 633.786 507.081 633.786C511.142 633.786 514.056 636.049 514.056 639.118C514.056 642.993 510.739 645.163 505.469 645.163C503.02 645.163 501.315 644.264 501.315 642.745C501.315 641.66 502.4 640.792 503.826 640.792C506.306 640.792 507.825 642.683 508.011 645.318L510.243 644.946C510.026 641.815 507.949 638.901 503.826 638.901C500.974 638.901 499.052 640.823 499.052 642.931C499.052 645.535 501.625 647.364 505.841 647.364C512.413 647.364 516.536 644.109 516.536 639.118C516.536 634.933 512.847 631.864 507.701 631.864C506.306 631.864 504.818 632.019 503.392 632.484C505.81 630.5 510.026 626.873 511.545 625.695C512.134 625.23 512.754 624.827 513.312 624.455L511.886 622.626C511.545 622.75 511.111 622.812 510.181 622.905C508.538 623.06 501.191 623.277 499.548 623.277C498.928 623.277 498.06 623.246 497.378 623.184Z" fill="#E0AD41"/>
<rect x="610.5" y="569.5" width="216" height="93" fill="black" stroke="#E0AD41" stroke-width="3"/>
<path d="M688.876 591.091C688.744 589.975 688.208 589.109 687.269 588.493C686.329 587.876 685.177 587.568 683.812 587.568C682.814 587.568 681.941 587.73 681.192 588.053C680.451 588.375 679.871 588.819 679.453 589.385C679.042 589.95 678.836 590.592 678.836 591.311C678.836 591.913 678.979 592.43 679.266 592.863C679.559 593.289 679.933 593.645 680.388 593.931C680.844 594.21 681.321 594.441 681.82 594.625C682.319 594.801 682.777 594.944 683.196 595.054L685.485 595.67C686.073 595.825 686.726 596.037 687.445 596.309C688.172 596.58 688.865 596.951 689.526 597.421C690.193 597.883 690.744 598.478 691.177 599.204C691.61 599.931 691.826 600.822 691.826 601.879C691.826 603.098 691.507 604.198 690.869 605.182C690.237 606.165 689.313 606.947 688.094 607.527C686.884 608.106 685.412 608.396 683.68 608.396C682.065 608.396 680.667 608.136 679.486 607.615C678.312 607.094 677.387 606.367 676.712 605.435C676.044 604.503 675.666 603.42 675.578 602.188H678.396C678.469 603.039 678.756 603.743 679.255 604.301C679.761 604.852 680.4 605.263 681.17 605.534C681.948 605.798 682.785 605.93 683.68 605.93C684.722 605.93 685.658 605.762 686.487 605.424C687.317 605.079 687.973 604.602 688.458 603.993C688.942 603.376 689.184 602.657 689.184 601.835C689.184 601.087 688.975 600.478 688.557 600.008C688.138 599.538 687.588 599.156 686.906 598.863C686.223 598.569 685.485 598.312 684.693 598.092L681.919 597.3C680.157 596.793 678.763 596.07 677.735 595.131C676.708 594.192 676.194 592.962 676.194 591.443C676.194 590.181 676.536 589.08 677.218 588.141C677.908 587.194 678.833 586.46 679.992 585.939C681.159 585.411 682.462 585.146 683.9 585.146C685.353 585.146 686.645 585.407 687.775 585.928C688.905 586.442 689.801 587.146 690.461 588.042C691.129 588.937 691.481 589.953 691.518 591.091H688.876ZM696.315 608V585.455H699.045V605.578H709.525V608H696.315ZM731.897 596.727C731.897 599.105 731.468 601.16 730.609 602.892C729.751 604.624 728.573 605.96 727.076 606.899C725.578 607.839 723.868 608.308 721.946 608.308C720.023 608.308 718.313 607.839 716.816 606.899C715.319 605.96 714.141 604.624 713.282 602.892C712.423 601.16 711.994 599.105 711.994 596.727C711.994 594.349 712.423 592.295 713.282 590.562C714.141 588.83 715.319 587.495 716.816 586.555C718.313 585.616 720.023 585.146 721.946 585.146C723.868 585.146 725.578 585.616 727.076 586.555C728.573 587.495 729.751 588.83 730.609 590.562C731.468 592.295 731.897 594.349 731.897 596.727ZM729.255 596.727C729.255 594.775 728.929 593.127 728.276 591.784C727.63 590.441 726.753 589.425 725.645 588.735C724.544 588.045 723.311 587.7 721.946 587.7C720.581 587.7 719.344 588.045 718.236 588.735C717.135 589.425 716.258 590.441 715.605 591.784C714.959 593.127 714.636 594.775 714.636 596.727C714.636 598.679 714.959 600.327 715.605 601.67C716.258 603.013 717.135 604.03 718.236 604.719C719.344 605.409 720.581 605.754 721.946 605.754C723.311 605.754 724.544 605.409 725.645 604.719C726.753 604.03 727.63 603.013 728.276 601.67C728.929 600.327 729.255 598.679 729.255 596.727ZM740.583 608L734.418 585.455H737.192L741.904 603.817H742.124L746.924 585.455H750.006L754.806 603.817H755.026L759.738 585.455H762.512L756.347 608H753.529L748.553 590.034H748.377L743.401 608H740.583ZM696.769 625.292L695.219 624.083C694.723 624.238 693.886 624.331 692.894 624.331C691.716 624.331 682.137 624.331 680.928 624.331C679.967 624.331 678.2 624.207 677.797 624.145V626.935C678.138 626.904 679.812 626.78 680.928 626.78C681.982 626.78 691.902 626.78 693.018 626.78C692.212 629.353 689.949 633.042 687.841 635.429C684.648 638.963 680.091 642.683 675.069 644.605L677.053 646.682C681.951 644.45 686.384 640.761 689.856 636.886C692.429 634.034 694.785 629.694 696.025 626.625C696.18 626.222 696.583 625.54 696.769 625.292ZM690.259 635.274L688.492 637.01C691.84 639.955 695.467 643.923 697.699 646.868L699.838 644.977C697.73 642.404 693.607 638.064 690.259 635.274ZM707.526 624.765C707.557 625.54 707.557 626.47 707.557 627.183C707.557 628.392 707.557 641.195 707.557 642.466C707.557 643.551 707.495 645.814 707.495 646.217H710.13C710.13 645.814 710.099 643.83 710.099 642.807C710.099 641.536 710.099 627.276 710.099 627.276H727.025C727.025 627.276 727.025 641.66 727.025 642.807C727.025 644.109 726.994 645.876 726.963 646.217H729.66C729.629 645.876 729.598 643.458 729.598 642.466C729.598 641.288 729.598 628.64 729.598 627.183C729.598 626.408 729.598 625.54 729.66 624.796C728.699 624.827 727.583 624.827 726.932 624.827C725.413 624.827 711.928 624.827 710.285 624.827C709.541 624.827 708.735 624.827 707.526 624.765ZM728.048 642.032H708.859V644.45H728.048V642.032ZM737.131 632.577V635.615C738.123 635.553 739.766 635.491 741.471 635.491C743.765 635.491 756.134 635.491 758.49 635.491C759.854 635.491 761.156 635.584 761.807 635.615V632.577C761.094 632.639 760.009 632.763 758.459 632.763C756.165 632.763 743.734 632.763 741.471 632.763C739.704 632.763 738.092 632.67 737.131 632.577Z" fill="#E0AD41"/>
<rect x="1099.14" y="569.5" width="217.363" height="93" fill="black" stroke="#E0AD41" stroke-width="3"/>
<rect x="1100.64" y="633.01" width="214.363" height="27.9904" fill="#BD1900"/>
<path d="M1130.74 617V585.727H1141.31C1143.75 585.727 1145.76 586.145 1147.33 586.979C1148.89 587.804 1150.05 588.939 1150.81 590.385C1151.56 591.83 1151.94 593.474 1151.94 595.317C1151.94 597.159 1151.56 598.793 1150.81 600.218C1150.05 601.644 1148.9 602.763 1147.34 603.578C1145.78 604.382 1143.79 604.784 1141.37 604.784H1132.82V601.364H1141.25C1142.92 601.364 1144.26 601.119 1145.28 600.631C1146.31 600.142 1147.05 599.45 1147.51 598.554C1147.98 597.648 1148.21 596.569 1148.21 595.317C1148.21 594.065 1147.98 592.97 1147.51 592.034C1147.04 591.097 1146.29 590.374 1145.26 589.865C1144.24 589.346 1142.88 589.087 1141.19 589.087H1134.53V617H1130.74ZM1145.46 602.952L1153.16 617H1148.76L1141.19 602.952H1145.46ZM1159.53 617H1155.56L1167.04 585.727H1170.95L1182.43 617H1178.46L1169.12 590.675H1168.87L1159.53 617ZM1161 604.784H1177V608.143H1161V604.784ZM1211 595.5H1207.21C1206.99 594.411 1206.6 593.454 1206.04 592.629C1205.49 591.805 1204.82 591.112 1204.02 590.553C1203.24 589.982 1202.37 589.555 1201.41 589.27C1200.45 588.985 1199.46 588.842 1198.42 588.842C1196.52 588.842 1194.81 589.321 1193.27 590.278C1191.75 591.235 1190.53 592.645 1189.62 594.507C1188.73 596.37 1188.28 598.656 1188.28 601.364C1188.28 604.071 1188.73 606.357 1189.62 608.22C1190.53 610.083 1191.75 611.493 1193.27 612.45C1194.81 613.406 1196.52 613.885 1198.42 613.885C1199.46 613.885 1200.45 613.742 1201.41 613.457C1202.37 613.172 1203.24 612.75 1204.02 612.19C1204.82 611.62 1205.49 610.923 1206.04 610.098C1206.6 609.263 1206.99 608.306 1207.21 607.227H1211C1210.72 608.826 1210.2 610.256 1209.44 611.518C1208.69 612.78 1207.75 613.854 1206.63 614.74C1205.51 615.616 1204.26 616.282 1202.86 616.74C1201.48 617.199 1200 617.428 1198.42 617.428C1195.75 617.428 1193.38 616.776 1191.3 615.473C1189.23 614.17 1187.59 612.317 1186.4 609.915C1185.21 607.512 1184.61 604.662 1184.61 601.364C1184.61 598.065 1185.21 595.215 1186.4 592.812C1187.59 590.41 1189.23 588.557 1191.3 587.254C1193.38 585.951 1195.75 585.3 1198.42 585.3C1200 585.3 1201.48 585.529 1202.86 585.987C1204.26 586.445 1205.51 587.117 1206.63 588.002C1207.75 588.878 1208.69 589.947 1209.44 591.209C1210.2 592.461 1210.72 593.892 1211 595.5ZM1220.91 585.727V617H1217.12V585.727H1220.91ZM1253.3 585.727V617H1249.63L1232.59 592.446H1232.29V617H1228.5V585.727H1232.16L1249.27 610.342H1249.57V585.727H1253.3ZM1282.25 595.5C1281.92 594.472 1281.47 593.551 1280.93 592.736C1280.39 591.912 1279.74 591.209 1278.99 590.629C1278.24 590.049 1277.4 589.606 1276.45 589.3C1275.5 588.995 1274.47 588.842 1273.34 588.842C1271.48 588.842 1269.8 589.321 1268.28 590.278C1266.76 591.235 1265.56 592.645 1264.66 594.507C1263.77 596.37 1263.32 598.656 1263.32 601.364C1263.32 604.071 1263.77 606.357 1264.68 608.22C1265.58 610.083 1266.81 611.493 1268.36 612.45C1269.91 613.406 1271.65 613.885 1273.58 613.885C1275.37 613.885 1276.95 613.503 1278.31 612.74C1279.69 611.966 1280.76 610.877 1281.52 609.472C1282.29 608.057 1282.68 606.393 1282.68 604.479L1283.84 604.723H1274.44V601.364H1286.35V604.723C1286.35 607.299 1285.8 609.538 1284.7 611.442C1283.61 613.345 1282.1 614.821 1280.18 615.87C1278.26 616.908 1276.06 617.428 1273.58 617.428C1270.81 617.428 1268.38 616.776 1266.28 615.473C1264.19 614.17 1262.57 612.317 1261.39 609.915C1260.23 607.512 1259.65 604.662 1259.65 601.364C1259.65 598.89 1259.99 596.666 1260.65 594.691C1261.32 592.706 1262.27 591.016 1263.49 589.621C1264.71 588.226 1266.15 587.158 1267.82 586.414C1269.49 585.671 1271.33 585.3 1273.34 585.3C1274.99 585.3 1276.52 585.549 1277.95 586.048C1279.38 586.537 1280.66 587.234 1281.78 588.14C1282.91 589.036 1283.85 590.11 1284.61 591.362C1285.36 592.604 1285.88 593.983 1286.16 595.5H1282.25Z" fill="#E0AD41"/>
<path d="M1176.17 655.225L1177.6 656.45C1178 656.225 1178.4 656.1 1178.65 656.025C1184.9 654.2 1190.05 651.125 1193.3 647.1L1192.17 645.35C1189.05 649.375 1183.27 652.65 1178.47 653.875C1178.47 652.6 1178.47 642.05 1178.47 639.675C1178.47 638.975 1178.57 638.025 1178.65 637.425H1176.2C1176.3 637.9 1176.4 639.025 1176.4 639.7C1176.4 642.075 1176.4 652.425 1176.4 654C1176.4 654.475 1176.35 654.825 1176.17 655.225ZM1198.15 645.175V647.625C1198.95 647.575 1200.27 647.525 1201.65 647.525C1203.5 647.525 1213.47 647.525 1215.37 647.525C1216.47 647.525 1217.52 647.6 1218.05 647.625V645.175C1217.47 645.225 1216.6 645.325 1215.35 645.325C1213.5 645.325 1203.47 645.325 1201.65 645.325C1200.22 645.325 1198.92 645.25 1198.15 645.175ZM1239.35 639.3L1238.1 638.325C1237.7 638.45 1237.03 638.525 1236.23 638.525C1235.28 638.525 1227.55 638.525 1226.58 638.525C1225.8 638.525 1224.38 638.425 1224.05 638.375V640.625C1224.33 640.6 1225.68 640.5 1226.58 640.5C1227.43 640.5 1235.43 640.5 1236.33 640.5C1235.68 642.575 1233.85 645.55 1232.15 647.475C1229.58 650.325 1225.9 653.325 1221.85 654.875L1223.45 656.55C1227.4 654.75 1230.98 651.775 1233.78 648.65C1235.85 646.35 1237.75 642.85 1238.75 640.375C1238.88 640.05 1239.2 639.5 1239.35 639.3ZM1234.1 647.35L1232.68 648.75C1235.38 651.125 1238.3 654.325 1240.1 656.7L1241.83 655.175C1240.13 653.1 1236.8 649.6 1234.1 647.35Z" fill="white"/>
<path d="M323.481 693.5H322.615L322.182 694.25L179.701 941.25L178.403 943.5H181H205.411H206.276L206.709 942.751L349.689 695.751L350.992 693.5H348.39H323.481Z" fill="black" stroke="black" stroke-width="3"/>
<path d="M325.474 693H323.474V695V718V720H325.474H1349.23H1351.23H1375.09H1377.09H1554H1556V718V514V512H1554H1351.23H1349.23V514V693H325.474Z" fill="black" stroke="black" stroke-width="4"/>
<path d="M225 133H326V538L104.5 940H0.5L85.5 538L225 133Z" fill="black"/>
<mask id="path-14-outside-1_2_13" maskUnits="userSpaceOnUse" x="220.677" y="0" width="1338" height="542" fill="black">
<rect fill="white" x="220.677" width="1338" height="542"/>
<path fill-rule="evenodd" clip-rule="evenodd" d="M471.35 4H224.677V138H325.515V538H1554V49H493.015L471.35 4Z"/>
</mask>
<path fill-rule="evenodd" clip-rule="evenodd" d="M471.35 4H224.677V138H325.515V538H1554V49H493.015L471.35 4Z" fill="black"/>
<path d="M224.677 4V0H220.677V4H224.677ZM471.35 4L474.954 2.26483L473.864 0H471.35V4ZM224.677 138H220.677V142H224.677V138ZM325.515 138H329.515V134H325.515V138ZM325.515 538H321.515V542H325.515V538ZM1554 538V542H1558V538H1554ZM1554 49H1558V45H1554V49ZM493.015 49L489.411 50.7352L490.502 53H493.015V49ZM224.677 8H471.35V0H224.677V8ZM228.677 138V4H220.677V138H228.677ZM325.515 134H224.677V142H325.515V134ZM329.515 538V138H321.515V538H329.515ZM1554 534H325.515V542H1554V534ZM1550 49V538H1558V49H1550ZM493.015 53H1554V45H493.015V53ZM467.746 5.73517L489.411 50.7352L496.619 47.2648L474.954 2.26483L467.746 5.73517Z" fill="#E0AD41" mask="url(#path-14-outside-1_2_13)"/>
<rect x="1249.5" y="249.5" width="271" height="149" fill="black" stroke="#E0AD41" stroke-width="3"/>
<path d="M1261.46 287.56V289.114H1278.15V287.56H1261.46ZM1262.43 293.734V295.267H1277.27V293.734H1262.43ZM1260.49 300.433V301.987H1279.2V300.433H1260.49ZM1268.96 288.799V301.231H1270.66V288.799H1268.96ZM1267.15 284.326C1268.54 285.355 1270.2 286.846 1270.95 287.833L1272.32 286.846C1271.5 285.838 1269.8 284.41 1268.43 283.444L1267.15 284.326ZM1283.36 286.972V288.799C1283.89 288.757 1284.71 288.715 1285.13 288.715H1296.66C1297.26 288.715 1297.94 288.757 1298.46 288.799V286.972C1297.96 287.035 1297.31 287.077 1296.66 287.077H1285.13C1284.69 287.077 1283.91 287.035 1283.36 286.972ZM1289.85 299.299H1291.64V288.022H1289.85V299.299ZM1282.08 298.27V300.16C1282.71 300.118 1283.36 300.097 1283.93 300.097H1297.81C1298.21 300.097 1298.99 300.097 1299.53 300.16V298.27C1299.01 298.312 1298.44 298.396 1297.81 298.396H1283.93C1283.34 298.396 1282.69 298.354 1282.08 298.27ZM1312.91 284.2H1311C1311.08 284.662 1311.1 285.439 1311.1 286.027C1311.1 286.636 1311.1 287.686 1311.1 288.106H1312.78C1312.78 287.686 1312.78 286.594 1312.78 286.027C1312.78 285.46 1312.83 284.641 1312.91 284.2ZM1318.68 288.316L1317.57 287.245C1317.24 287.35 1316.75 287.392 1316.25 287.392C1314.99 287.392 1307.95 287.392 1306.99 287.392C1306.27 287.392 1305.12 287.35 1304.45 287.266V289.051C1305.08 288.988 1306.29 288.967 1307.01 288.967C1307.95 288.967 1314.76 288.967 1315.74 288.967C1315.01 289.954 1313.35 291.592 1311.46 292.81C1309.57 294.049 1306.95 295.414 1302.96 296.38L1303.98 297.934C1307.58 296.842 1310.33 295.624 1312.62 294.028C1314.61 292.663 1316.42 290.857 1317.51 289.576C1317.84 289.177 1318.31 288.694 1318.68 288.316ZM1312.74 293.167L1311.06 293.881C1311.06 295.225 1311.06 297.997 1311.06 299.572C1311.06 300.307 1311 301.273 1310.94 301.903H1312.85C1312.78 301.252 1312.74 300.307 1312.74 299.572C1312.74 297.955 1312.74 294.784 1312.74 293.167ZM1319.65 298.186L1320.76 296.758C1318.81 295.456 1317.68 294.784 1315.7 293.734L1314.61 294.952C1316.56 296.002 1317.82 296.842 1319.65 298.186ZM1333.3 300.559L1334.41 301.483C1334.58 301.378 1334.79 301.189 1335.15 301.021C1337.58 299.803 1340.48 297.661 1342.31 295.204L1341.3 293.755C1339.71 296.128 1337.12 298.039 1335.17 298.921C1335.17 298.291 1335.17 288.127 1335.17 286.825C1335.17 286.027 1335.25 285.418 1335.27 285.25H1333.34C1333.34 285.418 1333.45 286.006 1333.45 286.804C1333.45 288.127 1333.45 298.417 1333.45 299.383C1333.45 299.803 1333.38 300.244 1333.3 300.559ZM1323.68 300.475L1325.28 301.525C1327.04 300.055 1328.39 298.018 1329.02 295.771C1329.58 293.671 1329.65 289.156 1329.65 286.825C1329.65 286.216 1329.73 285.565 1329.75 285.334H1327.82C1327.92 285.775 1327.97 286.237 1327.97 286.846C1327.97 289.198 1327.97 293.377 1327.34 295.309C1326.71 297.346 1325.47 299.215 1323.68 300.475ZM1359.09 283.948L1357.98 284.431C1358.54 285.229 1359.24 286.489 1359.66 287.329L1360.79 286.825C1360.37 285.985 1359.61 284.704 1359.09 283.948ZM1361.38 283.108L1360.29 283.591C1360.87 284.368 1361.57 285.565 1362.01 286.468L1363.14 285.964C1362.74 285.187 1361.94 283.885 1361.38 283.108ZM1351.15 286.531C1351.38 287.623 1353.63 299.047 1353.86 300.349C1354.01 300.979 1354.07 301.609 1354.17 302.323L1356.09 301.966C1355.9 301.378 1355.73 300.664 1355.58 300.055C1355.29 298.669 1352.98 287.161 1352.83 286.216C1352.77 285.754 1352.66 285.166 1352.64 284.767L1350.75 285.082C1350.9 285.523 1351.05 285.985 1351.15 286.531ZM1345.23 289.555L1345.59 291.424C1346.22 291.298 1346.7 291.193 1347.29 291.088C1349.11 290.773 1356.27 289.639 1358.46 289.282C1359 289.198 1359.66 289.114 1359.97 289.072L1359.61 287.308C1359.26 287.413 1358.73 287.539 1358.12 287.665C1356.13 288.043 1348.86 289.198 1346.97 289.408C1346.3 289.492 1345.75 289.534 1345.23 289.555ZM1345.17 295.624L1345.54 297.451C1346.01 297.325 1346.57 297.199 1347.39 297.073C1349.53 296.674 1357.09 295.456 1359.89 295.015C1360.66 294.889 1361.34 294.763 1361.78 294.721L1361.44 292.957C1360.98 293.104 1360.39 293.23 1359.57 293.377C1357.07 293.839 1349.24 295.141 1347.01 295.435C1346.47 295.519 1345.65 295.603 1345.17 295.624ZM1366.44 291.907V293.965C1367.11 293.923 1368.22 293.881 1369.38 293.881C1370.93 293.881 1379.31 293.881 1380.91 293.881C1381.83 293.881 1382.71 293.944 1383.15 293.965V291.907C1382.67 291.949 1381.94 292.033 1380.89 292.033C1379.33 292.033 1370.91 292.033 1369.38 292.033C1368.18 292.033 1367.09 291.97 1366.44 291.907ZM1390.95 283.423C1389.77 286.615 1387.8 289.765 1385.74 291.802C1386.03 292.159 1386.47 292.999 1386.64 293.356C1388.91 291.004 1391.07 287.434 1392.44 283.885L1390.95 283.423ZM1388.72 288.862V302.659H1390.27V287.35L1390.25 287.329L1388.72 288.862ZM1392.33 287.854V289.366H1405.23V287.854H1392.33ZM1391.81 294.553V296.107H1405.48V294.553H1391.81ZM1395.04 283.591V295.393H1396.59V283.591H1395.04ZM1400.69 283.57V295.414H1402.22V283.57H1400.69ZM1395.48 297.283C1394.58 298.9 1393.13 300.559 1391.68 301.651C1392.04 301.861 1392.65 302.365 1392.94 302.638C1394.35 301.441 1395.94 299.572 1396.97 297.745L1395.48 297.283ZM1400.25 298.039C1401.66 299.446 1403.21 301.399 1403.92 302.701L1405.25 301.861C1404.49 300.58 1402.94 298.711 1401.49 297.325L1400.25 298.039ZM1416.94 290.29V291.739H1423.94V290.29H1416.94ZM1416.84 300.055V301.483H1424.4V300.055H1416.84ZM1420.28 285.187C1421.54 287.245 1423.89 289.933 1425.95 291.634C1426.2 291.172 1426.58 290.584 1426.94 290.206C1424.82 288.652 1422.47 285.943 1420.98 283.57H1419.44C1418.35 285.796 1416.06 288.673 1413.79 290.416C1414.11 290.752 1414.53 291.34 1414.72 291.76C1416.99 289.954 1419.13 287.266 1420.28 285.187ZM1416.04 294.259V302.68H1417.49V295.687H1423.56V302.596H1425.07V294.259H1416.04ZM1410.41 283.381C1409.87 284.767 1408.9 286.783 1408.1 287.98L1409.19 288.484C1410.01 287.329 1411 285.46 1411.8 283.927L1410.41 283.381ZM1412.76 285.775C1411.65 288.043 1409.68 291.235 1408.12 293.125L1409.09 293.671C1410.64 291.823 1412.66 288.778 1414.09 286.363L1412.76 285.775ZM1407.09 287.791C1408.23 288.799 1409.55 290.269 1410.12 291.256L1410.96 290.059C1410.39 289.114 1409.07 287.749 1407.89 286.762L1407.09 287.791ZM1412.03 290.647C1412.87 292.033 1413.65 293.881 1413.94 295.057L1415.12 294.511C1414.82 293.356 1413.98 291.55 1413.12 290.206L1412.03 290.647ZM1407.03 292.789L1407.16 294.217C1409.07 294.091 1411.61 293.944 1414.13 293.776L1414.15 292.474C1411.48 292.621 1408.86 292.726 1407.03 292.789ZM1412.58 295.603C1413.1 296.821 1413.67 298.438 1413.86 299.488L1415.07 299.068C1414.86 298.018 1414.3 296.422 1413.71 295.246L1412.58 295.603ZM1408.21 295.372C1407.96 297.22 1407.54 299.089 1406.84 300.37C1407.18 300.517 1407.81 300.811 1408.08 300.979C1408.75 299.635 1409.28 297.598 1409.57 295.624L1408.21 295.372ZM1410.48 293.377V302.743H1411.88V293.377H1410.48ZM1433.62 284.872L1432.69 286.3C1433.91 286.993 1436.2 288.505 1437.21 289.282L1438.2 287.854C1437.27 287.182 1434.86 285.565 1433.62 284.872ZM1430.47 299.887L1431.45 301.588C1433.39 301.189 1436.28 300.223 1438.41 298.984C1441.77 297.01 1444.66 294.301 1446.49 291.487L1445.46 289.744C1443.78 292.705 1441.01 295.456 1437.52 297.451C1435.38 298.648 1432.78 299.488 1430.47 299.887ZM1430.47 289.597L1429.52 291.025C1430.8 291.697 1433.07 293.146 1434.1 293.902L1435.07 292.432C1434.16 291.781 1431.71 290.269 1430.47 289.597ZM1465.1 286.972L1464.05 286.153C1463.71 286.258 1463.14 286.321 1462.47 286.321C1461.67 286.321 1455.18 286.321 1454.37 286.321C1453.71 286.321 1452.52 286.237 1452.24 286.195V288.085C1452.48 288.064 1453.61 287.98 1454.37 287.98C1455.08 287.98 1461.8 287.98 1462.56 287.98C1462.01 289.723 1460.48 292.222 1459.05 293.839C1456.89 296.233 1453.8 298.753 1450.4 300.055L1451.74 301.462C1455.06 299.95 1458.06 297.451 1460.41 294.826C1462.16 292.894 1463.75 289.954 1464.59 287.875C1464.7 287.602 1464.97 287.14 1465.1 286.972ZM1460.69 293.734L1459.49 294.91C1461.76 296.905 1464.21 299.593 1465.73 301.588L1467.18 300.307C1465.75 298.564 1462.95 295.624 1460.69 293.734ZM1473.81 285.481V287.224C1474.36 287.182 1475.05 287.14 1475.74 287.14C1476.94 287.14 1483.05 287.14 1484.23 287.14C1484.82 287.14 1485.55 287.182 1486.18 287.224V285.481C1485.57 285.544 1484.82 285.586 1484.23 285.586C1483.05 285.586 1476.94 285.586 1475.72 285.586C1475.03 285.586 1474.42 285.544 1473.81 285.481ZM1471.31 290.752V292.495C1471.88 292.453 1472.51 292.432 1473.14 292.432C1474.36 292.432 1485.76 292.432 1486.87 292.432C1487.4 292.432 1488.05 292.453 1488.53 292.474V290.752C1488.01 290.815 1487.31 290.836 1486.87 290.836C1485.76 290.836 1474.36 290.836 1473.14 290.836C1472.49 290.836 1471.88 290.815 1471.31 290.752ZM1481.2 291.592L1479.44 291.613C1479.42 293.923 1479.25 295.981 1478.2 297.64C1477.38 298.984 1475.87 300.181 1474.25 300.874L1475.81 302.008C1477.57 301.084 1479.17 299.593 1479.92 298.186C1480.87 296.422 1481.2 294.238 1481.2 291.592ZM1500.64 285.355L1498.54 284.914C1498.48 285.481 1498.4 285.964 1498.12 286.93C1497.49 289.156 1495.06 296.758 1494.01 299.173L1495.9 299.11C1496.8 296.989 1499.24 289.45 1499.91 287.308C1500.2 286.405 1500.43 285.859 1500.64 285.355ZM1504.63 292.39L1503.04 293.083C1504.55 295.078 1506.69 299.446 1507.53 301.714L1509.28 300.937C1508.41 298.774 1506.1 294.532 1504.63 292.39ZM1493.19 298.669C1492.58 298.711 1491.85 298.732 1491.22 298.711L1491.55 300.643C1492.14 300.559 1492.77 300.475 1493.29 300.433C1496.26 300.139 1503.98 299.299 1506.9 298.921L1506.44 297.283C1503.73 297.682 1496.21 298.522 1493.19 298.669Z" fill="#E0AD41"/>
<path d="M1301.73 329.818H1304.36L1310.53 344.911H1310.75L1316.93 329.818H1319.55V348H1317.5V334.186H1317.32L1311.64 348H1309.65L1303.97 334.186H1303.79V348H1301.73V329.818ZM1324.72 348H1322.41L1329.08 329.818H1331.36L1338.03 348H1335.72L1330.29 332.695H1330.15L1324.72 348ZM1325.57 340.898H1334.87V342.851H1325.57V340.898ZM1343.07 329.818V348H1340.86V329.818H1343.07ZM1361.9 329.818V348H1359.77L1349.86 333.724H1349.68V348H1347.48V329.818H1349.61L1359.55 344.129H1359.73V329.818H1361.9ZM1373.33 348V329.818H1384.31V331.771H1375.54V337.915H1383.74V339.868H1375.54V346.047H1384.45V348H1373.33ZM1402.69 329.818V348H1400.56L1390.66 333.724H1390.48V348H1388.28V329.818H1390.41L1400.35 344.129H1400.53V329.818H1402.69ZM1407.1 348V329.818H1418.07V331.771H1409.3V337.915H1417.5V339.868H1409.3V346.047H1418.21V348H1407.1ZM1422.04 348V329.818H1428.18C1429.6 329.818 1430.77 330.061 1431.68 330.546C1432.59 331.026 1433.27 331.685 1433.71 332.526C1434.14 333.366 1434.36 334.322 1434.36 335.393C1434.36 336.465 1434.14 337.415 1433.71 338.243C1433.27 339.072 1432.6 339.723 1431.69 340.196C1430.79 340.664 1429.63 340.898 1428.22 340.898H1423.25V338.909H1428.15C1429.12 338.909 1429.9 338.767 1430.49 338.483C1431.09 338.199 1431.52 337.796 1431.79 337.276C1432.06 336.749 1432.2 336.121 1432.2 335.393C1432.2 334.665 1432.06 334.029 1431.79 333.485C1431.52 332.94 1431.08 332.52 1430.48 332.224C1429.89 331.922 1429.1 331.771 1428.11 331.771H1424.24V348H1422.04ZM1430.6 339.832L1435.07 348H1432.52L1428.11 339.832H1430.6ZM1450.46 335.5C1450.27 334.902 1450.01 334.367 1449.69 333.893C1449.37 333.414 1449 333.005 1448.56 332.668C1448.13 332.331 1447.64 332.073 1447.09 331.896C1446.54 331.718 1445.93 331.629 1445.28 331.629C1444.2 331.629 1443.22 331.907 1442.34 332.464C1441.46 333.02 1440.75 333.84 1440.23 334.923C1439.71 336.006 1439.45 337.335 1439.45 338.909C1439.45 340.483 1439.72 341.812 1440.24 342.895C1440.77 343.978 1441.48 344.798 1442.38 345.354C1443.28 345.911 1444.29 346.189 1445.42 346.189C1446.46 346.189 1447.38 345.967 1448.17 345.523C1448.97 345.073 1449.59 344.44 1450.03 343.623C1450.48 342.801 1450.71 341.833 1450.71 340.72L1451.38 340.862H1445.92V338.909H1452.84V340.862C1452.84 342.36 1452.52 343.662 1451.88 344.768C1451.25 345.875 1450.37 346.733 1449.25 347.343C1448.14 347.947 1446.86 348.249 1445.42 348.249C1443.81 348.249 1442.39 347.87 1441.17 347.112C1439.96 346.355 1439.01 345.277 1438.33 343.881C1437.66 342.484 1437.32 340.827 1437.32 338.909C1437.32 337.471 1437.51 336.178 1437.9 335.029C1438.29 333.875 1438.84 332.893 1439.55 332.082C1440.26 331.271 1441.1 330.65 1442.07 330.218C1443.04 329.786 1444.11 329.57 1445.28 329.57C1446.23 329.57 1447.13 329.715 1447.96 330.005C1448.79 330.289 1449.53 330.694 1450.19 331.221C1450.84 331.742 1451.39 332.366 1451.83 333.094C1452.27 333.816 1452.57 334.618 1452.73 335.5H1450.46ZM1454.49 329.818H1457.01L1462.05 338.305H1462.26L1467.31 329.818H1469.83L1463.26 340.507V348H1461.06V340.507L1454.49 329.818ZM1294.74 364.364C1294.63 363.464 1294.2 362.766 1293.44 362.268C1292.69 361.771 1291.76 361.523 1290.66 361.523C1289.85 361.523 1289.15 361.653 1288.54 361.913C1287.95 362.174 1287.48 362.532 1287.14 362.988C1286.81 363.443 1286.64 363.961 1286.64 364.541C1286.64 365.027 1286.76 365.444 1286.99 365.793C1287.23 366.136 1287.53 366.423 1287.9 366.654C1288.26 366.879 1288.65 367.065 1289.05 367.213C1289.45 367.355 1289.82 367.471 1290.16 367.56L1292.01 368.057C1292.48 368.181 1293.01 368.353 1293.59 368.572C1294.17 368.791 1294.73 369.09 1295.26 369.468C1295.8 369.841 1296.25 370.321 1296.6 370.907C1296.94 371.493 1297.12 372.212 1297.12 373.064C1297.12 374.046 1296.86 374.934 1296.35 375.727C1295.84 376.52 1295.09 377.151 1294.11 377.618C1293.13 378.086 1291.95 378.32 1290.55 378.32C1289.25 378.32 1288.12 378.109 1287.17 377.689C1286.22 377.269 1285.47 376.683 1284.93 375.931C1284.39 375.18 1284.09 374.307 1284.02 373.312H1286.29C1286.35 373.999 1286.58 374.567 1286.98 375.017C1287.39 375.461 1287.9 375.792 1288.53 376.011C1289.15 376.224 1289.83 376.331 1290.55 376.331C1291.39 376.331 1292.14 376.195 1292.81 375.923C1293.48 375.644 1294.01 375.26 1294.4 374.768C1294.79 374.271 1294.99 373.691 1294.99 373.028C1294.99 372.425 1294.82 371.933 1294.48 371.555C1294.15 371.176 1293.7 370.868 1293.15 370.631C1292.6 370.395 1292.01 370.187 1291.37 370.01L1289.13 369.371C1287.71 368.962 1286.58 368.379 1285.76 367.622C1284.93 366.864 1284.51 365.873 1284.51 364.648C1284.51 363.63 1284.79 362.742 1285.34 361.984C1285.89 361.221 1286.64 360.629 1287.58 360.209C1288.52 359.783 1289.57 359.57 1290.73 359.57C1291.9 359.57 1292.94 359.78 1293.85 360.2C1294.76 360.614 1295.49 361.182 1296.02 361.904C1296.56 362.627 1296.84 363.446 1296.87 364.364H1294.74ZM1312.67 359.818H1314.87V371.857C1314.87 373.099 1314.58 374.209 1313.99 375.186C1313.41 376.156 1312.59 376.923 1311.53 377.485C1310.48 378.041 1309.23 378.32 1307.81 378.32C1306.38 378.32 1305.14 378.041 1304.08 377.485C1303.02 376.923 1302.2 376.156 1301.61 375.186C1301.03 374.209 1300.74 373.099 1300.74 371.857V359.818H1302.94V371.679C1302.94 372.567 1303.14 373.357 1303.53 374.049C1303.92 374.736 1304.47 375.277 1305.2 375.674C1305.92 376.065 1306.79 376.26 1307.81 376.26C1308.82 376.26 1309.69 376.065 1310.42 375.674C1311.14 375.277 1311.7 374.736 1312.09 374.049C1312.48 373.357 1312.67 372.567 1312.67 371.679V359.818ZM1319.27 378V359.818H1325.41C1326.84 359.818 1328.01 360.076 1328.91 360.591C1329.82 361.1 1330.5 361.789 1330.94 362.659C1331.37 363.529 1331.59 364.5 1331.59 365.571C1331.59 366.642 1331.37 367.616 1330.94 368.492C1330.5 369.368 1329.83 370.066 1328.93 370.587C1328.02 371.102 1326.86 371.359 1325.45 371.359H1321.05V369.406H1325.38C1326.35 369.406 1327.14 369.238 1327.73 368.9C1328.32 368.563 1328.75 368.107 1329.02 367.533C1329.29 366.953 1329.43 366.299 1329.43 365.571C1329.43 364.843 1329.29 364.192 1329.02 363.618C1328.75 363.044 1328.32 362.594 1327.72 362.268C1327.12 361.937 1326.33 361.771 1325.34 361.771H1321.47V378H1319.27ZM1335.14 378V359.818H1341.28C1342.71 359.818 1343.87 360.076 1344.78 360.591C1345.69 361.1 1346.37 361.789 1346.8 362.659C1347.24 363.529 1347.46 364.5 1347.46 365.571C1347.46 366.642 1347.24 367.616 1346.8 368.492C1346.37 369.368 1345.7 370.066 1344.8 370.587C1343.89 371.102 1342.73 371.359 1341.32 371.359H1336.91V369.406H1341.25C1342.22 369.406 1343.01 369.238 1343.6 368.9C1344.19 368.563 1344.62 368.107 1344.89 367.533C1345.16 366.953 1345.29 366.299 1345.29 365.571C1345.29 364.843 1345.16 364.192 1344.89 363.618C1344.62 363.044 1344.19 362.594 1343.59 362.268C1342.99 361.937 1342.2 361.771 1341.21 361.771H1337.34V378H1335.14ZM1351.01 378V359.818H1353.21V376.047H1361.66V378H1351.01ZM1362.65 359.818H1365.17L1370.22 368.305H1370.43L1375.47 359.818H1377.99L1371.42 370.507V378H1369.22V370.507L1362.65 359.818ZM1397.82 364.364C1397.71 363.464 1397.28 362.766 1396.52 362.268C1395.76 361.771 1394.83 361.523 1393.73 361.523C1392.93 361.523 1392.22 361.653 1391.62 361.913C1391.02 362.174 1390.55 362.532 1390.22 362.988C1389.89 363.443 1389.72 363.961 1389.72 364.541C1389.72 365.027 1389.84 365.444 1390.07 365.793C1390.3 366.136 1390.6 366.423 1390.97 366.654C1391.34 366.879 1391.72 367.065 1392.13 367.213C1392.53 367.355 1392.9 367.471 1393.24 367.56L1395.08 368.057C1395.56 368.181 1396.08 368.353 1396.66 368.572C1397.25 368.791 1397.81 369.09 1398.34 369.468C1398.88 369.841 1399.32 370.321 1399.67 370.907C1400.02 371.493 1400.2 372.212 1400.2 373.064C1400.2 374.046 1399.94 374.934 1399.42 375.727C1398.91 376.52 1398.17 377.151 1397.19 377.618C1396.21 378.086 1395.02 378.32 1393.63 378.32C1392.32 378.32 1391.2 378.109 1390.24 377.689C1389.3 377.269 1388.55 376.683 1388.01 375.931C1387.47 375.18 1387.16 374.307 1387.09 373.312H1389.36C1389.42 373.999 1389.65 374.567 1390.06 375.017C1390.47 375.461 1390.98 375.792 1391.6 376.011C1392.23 376.224 1392.9 376.331 1393.63 376.331C1394.47 376.331 1395.22 376.195 1395.89 375.923C1396.56 375.644 1397.09 375.26 1397.48 374.768C1397.87 374.271 1398.06 373.691 1398.06 373.028C1398.06 372.425 1397.9 371.933 1397.56 371.555C1397.22 371.176 1396.78 370.868 1396.23 370.631C1395.68 370.395 1395.08 370.187 1394.44 370.01L1392.21 369.371C1390.79 368.962 1389.66 368.379 1388.83 367.622C1388 366.864 1387.59 365.873 1387.59 364.648C1387.59 363.63 1387.86 362.742 1388.41 361.984C1388.97 361.221 1389.72 360.629 1390.65 360.209C1391.59 359.783 1392.64 359.57 1393.8 359.57C1394.98 359.57 1396.02 359.78 1396.93 360.2C1397.84 360.614 1398.56 361.182 1399.09 361.904C1399.63 362.627 1399.92 363.446 1399.95 364.364H1397.82ZM1402.25 359.818H1404.77L1409.82 368.305H1410.03L1415.07 359.818H1417.59L1411.02 370.507V378H1408.82V370.507L1402.25 359.818ZM1430.38 364.364C1430.28 363.464 1429.85 362.766 1429.09 362.268C1428.33 361.771 1427.4 361.523 1426.3 361.523C1425.5 361.523 1424.79 361.653 1424.19 361.913C1423.59 362.174 1423.12 362.532 1422.79 362.988C1422.45 363.443 1422.29 363.961 1422.29 364.541C1422.29 365.027 1422.4 365.444 1422.63 365.793C1422.87 366.136 1423.17 366.423 1423.54 366.654C1423.91 366.879 1424.29 367.065 1424.69 367.213C1425.1 367.355 1425.47 367.471 1425.8 367.56L1427.65 368.057C1428.12 368.181 1428.65 368.353 1429.23 368.572C1429.82 368.791 1430.38 369.09 1430.91 369.468C1431.45 369.841 1431.89 370.321 1432.24 370.907C1432.59 371.493 1432.76 372.212 1432.76 373.064C1432.76 374.046 1432.51 374.934 1431.99 375.727C1431.48 376.52 1430.74 377.151 1429.75 377.618C1428.78 378.086 1427.59 378.32 1426.19 378.32C1424.89 378.32 1423.76 378.109 1422.81 377.689C1421.86 377.269 1421.12 376.683 1420.57 375.931C1420.04 375.18 1419.73 374.307 1419.66 373.312H1421.93C1421.99 373.999 1422.22 374.567 1422.63 375.017C1423.03 375.461 1423.55 375.792 1424.17 376.011C1424.8 376.224 1425.47 376.331 1426.19 376.331C1427.03 376.331 1427.79 376.195 1428.46 375.923C1429.13 375.644 1429.66 375.26 1430.05 374.768C1430.44 374.271 1430.63 373.691 1430.63 373.028C1430.63 372.425 1430.46 371.933 1430.13 371.555C1429.79 371.176 1429.35 370.868 1428.8 370.631C1428.25 370.395 1427.65 370.187 1427.01 370.01L1424.77 369.371C1423.35 368.962 1422.23 368.379 1421.4 367.622C1420.57 366.864 1420.16 365.873 1420.16 364.648C1420.16 363.63 1420.43 362.742 1420.98 361.984C1421.54 361.221 1422.29 360.629 1423.22 360.209C1424.16 359.783 1425.21 359.57 1426.37 359.57C1427.54 359.57 1428.59 359.78 1429.5 360.2C1430.41 360.614 1431.13 361.182 1431.66 361.904C1432.2 362.627 1432.49 363.446 1432.52 364.364H1430.38ZM1435.39 361.771V359.818H1449.03V361.771H1443.31V378H1441.11V361.771H1435.39ZM1452.42 378V359.818H1463.4V361.771H1454.63V367.915H1462.83V369.868H1454.63V376.047H1463.54V378H1452.42ZM1467.37 359.818H1469.99L1476.17 374.911H1476.39L1482.56 359.818H1485.19V378H1483.13V364.186H1482.95L1477.27 378H1475.28L1469.6 364.186H1469.42V378H1467.37V359.818Z" fill="#E0AD41"/>
<rect x="1249.5" y="81.5" width="271" height="149" fill="black" stroke="#E0AD41" stroke-width="3"/>
<mask id="mask0_2_13" style="mask-type:alpha" maskUnits="userSpaceOnUse" x="1433" y="83" width="86" height="146">
<rect x="1433" y="83" width="86" height="146" fill="black"/>
</mask>
<g mask="url(#mask0_2_13)">
<rect width="23.7537" height="268.047" transform="matrix(0.766044 0.642788 -0.726869 0.686776 1445.25 14.841)" fill="#BD1900"/>
<rect width="23.7537" height="268.047" transform="matrix(0.766044 0.642788 -0.726869 0.686776 1471.87 37.1784)" fill="#BD1900"/>
<rect width="23.7537" height="268.047" transform="matrix(0.766044 0.642788 -0.726869 0.686776 1498.49 59.5158)" fill="#BD1900"/>
<rect width="23.7537" height="268.047" transform="matrix(0.766044 0.642788 -0.726869 0.686776 1525.11 81.8532)" fill="#BD1900"/>
<rect width="23.7537" height="268.047" transform="matrix(0.766044 0.642788 -0.726869 0.686776 1551.73 104.191)" fill="#BD1900"/>
<rect width="23.7537" height="268.047" transform="matrix(0.766044 0.642788 -0.726869 0.686776 1578.35 126.528)" fill="#BD1900"/>
<rect width="23.7537" height="268.047" transform="matrix(0.766044 0.642788 -0.726869 0.686776 1604.97 148.865)" fill="#BD1900"/>
<rect width="23.7537" height="268.047" transform="matrix(0.766044 0.642788 -0.726869 0.686776 1631.59 171.203)" fill="#BD1900"/>
<rect width="23.7537" height="268.047" transform="matrix(0.766044 0.642788 -0.726869 0.686776 1658.21 193.54)" fill="#BD1900"/>
</g>
<path d="M1317.3 110.47C1321.89 114.61 1327.65 120.37 1330.35 123.925L1333.14 121.765C1330.26 118.255 1324.41 112.63 1319.82 108.67L1317.3 110.47ZM1317.79 92.2V101.02C1317.79 107.23 1317.21 115.915 1305.96 121.99C1306.72 122.575 1307.89 123.79 1308.34 124.51C1319.95 117.715 1321.26 108.22 1321.26 101.02V92.2H1317.79ZM1301.41 99.895V133.69H1304.79V103.225H1335.84V99.895H1301.41ZM1334.31 99.895V129.145C1334.31 129.91 1334.04 130.18 1333.18 130.225C1332.28 130.27 1329.22 130.27 1326.03 130.135C1326.48 131.08 1327.02 132.655 1327.15 133.6C1331.2 133.6 1333.99 133.555 1335.57 133.015C1337.1 132.43 1337.64 131.35 1337.64 129.145V99.895H1334.31ZM1369 94.9V133.645H1372.29V98.095H1382.5V94.9H1369ZM1345.02 97.195V100.21H1366.53V97.195H1345.02ZM1343.85 109.66V112.765H1367.11V109.66H1343.85ZM1354.06 92.38V99.04H1357.35V92.38H1354.06ZM1347.81 101.785C1348.75 104.08 1349.52 107.14 1349.74 109.12L1352.76 108.4C1352.49 106.42 1351.63 103.405 1350.64 101.155L1347.81 101.785ZM1360.72 100.84C1360.18 103.135 1359.1 106.465 1358.2 108.535L1360.9 109.255C1361.89 107.275 1362.97 104.26 1363.96 101.605L1360.72 100.84ZM1348.08 128.02V131.035H1362.88V128.02H1348.08ZM1346.86 116.68V133.645H1350.01V119.695H1361.35V133.42H1364.59V116.68H1346.86ZM1381.6 94.9V95.98C1380.25 99.535 1377.82 105.745 1375.53 110.38C1380.07 114.34 1381.38 117.715 1381.42 120.55C1381.42 122.215 1381.11 123.52 1380.12 124.105C1379.58 124.42 1378.95 124.6 1378.18 124.645C1377.28 124.69 1375.98 124.645 1374.67 124.555C1375.26 125.5 1375.57 126.94 1375.62 127.885C1376.92 127.93 1378.41 127.975 1379.53 127.84C1380.7 127.66 1381.69 127.345 1382.5 126.85C1384.08 125.77 1384.71 123.655 1384.71 120.91C1384.66 117.67 1383.58 114.115 1379.04 109.93C1381.11 105.79 1383.45 100.57 1385.29 96.34L1382.82 94.765L1382.28 94.9H1381.6Z" fill="#E0AD41"/>
<path d="M1264.9 164.273V189H1261.9V164.273H1264.9ZM1290.51 164.273V189H1287.61L1274.14 169.585H1273.9V189H1270.9V164.273H1273.8L1287.32 183.736H1287.56V164.273H1290.51ZM1295.15 166.929V164.273H1313.69V166.929H1305.92V189H1302.92V166.929H1295.15ZM1318.32 189V164.273H1333.24V166.929H1321.31V175.284H1332.47V177.94H1321.31V186.344H1333.43V189H1318.32ZM1338.64 189V164.273H1346.99C1348.92 164.273 1350.51 164.603 1351.75 165.263C1352.99 165.915 1353.91 166.812 1354.5 167.955C1355.1 169.098 1355.39 170.398 1355.39 171.855C1355.39 173.312 1355.1 174.604 1354.5 175.731C1353.91 176.858 1352.99 177.743 1351.76 178.387C1350.53 179.023 1348.96 179.341 1347.04 179.341H1340.28V176.636H1346.94C1348.26 176.636 1349.33 176.443 1350.13 176.057C1350.94 175.67 1351.53 175.123 1351.89 174.415C1352.26 173.698 1352.45 172.845 1352.45 171.855C1352.45 170.865 1352.26 170 1351.89 169.259C1351.52 168.519 1350.93 167.947 1350.12 167.545C1349.31 167.134 1348.23 166.929 1346.89 166.929H1341.63V189H1338.64ZM1350.28 177.892L1356.36 189H1352.88L1346.89 177.892H1350.28ZM1379.99 164.273V189H1377.09L1363.62 169.585H1363.38V189H1360.38V164.273H1363.28L1376.8 183.736H1377.05V164.273H1379.99ZM1387 189H1383.86L1392.94 164.273H1396.03L1405.11 189H1401.97L1394.58 168.185H1394.39L1387 189ZM1388.16 179.341H1400.81V181.997H1388.16V179.341ZM1408.96 189V164.273H1411.95V186.344H1423.45V189H1408.96Z" fill="#E0AD41"/>
<path d="M424.548 146H419.47L434.157 106H439.157L453.845 146H448.767L436.813 112.328H436.501L424.548 146ZM426.423 130.375H446.892V134.672H426.423V130.375ZM490.383 118.5H485.539C485.253 117.107 484.751 115.883 484.035 114.828C483.332 113.773 482.473 112.888 481.457 112.172C480.454 111.443 479.341 110.896 478.117 110.531C476.893 110.167 475.617 109.984 474.289 109.984C471.867 109.984 469.673 110.596 467.707 111.82C465.754 113.044 464.198 114.848 463.039 117.23C461.893 119.613 461.32 122.536 461.32 126C461.32 129.464 461.893 132.387 463.039 134.77C464.198 137.152 465.754 138.956 467.707 140.18C469.673 141.404 471.867 142.016 474.289 142.016C475.617 142.016 476.893 141.833 478.117 141.469C479.341 141.104 480.454 140.564 481.457 139.848C482.473 139.118 483.332 138.227 484.035 137.172C484.751 136.104 485.253 134.88 485.539 133.5H490.383C490.018 135.544 489.354 137.374 488.391 138.988C487.427 140.603 486.229 141.977 484.797 143.109C483.365 144.229 481.757 145.082 479.973 145.668C478.202 146.254 476.307 146.547 474.289 146.547C470.878 146.547 467.844 145.714 465.188 144.047C462.531 142.38 460.441 140.01 458.918 136.937C457.395 133.865 456.633 130.219 456.633 126C456.633 121.781 457.395 118.135 458.918 115.062C460.441 111.99 462.531 109.62 465.188 107.953C467.844 106.286 470.878 105.453 474.289 105.453C476.307 105.453 478.202 105.746 479.973 106.332C481.757 106.918 483.365 107.777 484.797 108.91C486.229 110.03 487.427 111.397 488.391 113.012C489.354 114.613 490.018 116.443 490.383 118.5ZM496.022 110.297V106H526.022V110.297H513.444V146H508.601V110.297H496.022ZM538.342 106V146H533.498V106H538.342ZM549.694 106L561.569 139.672H562.038L573.913 106H578.991L564.304 146H559.304L544.616 106H549.694ZM585.222 146V106H609.362V110.297H590.065V123.812H608.112V128.109H590.065V141.703H609.675V146H585.222ZM631.374 110.297V106H661.374V110.297H648.796V146H643.952V110.297H631.374ZM673.693 106V146H668.85V106H673.693ZM683.405 106H689.187L702.78 139.203H703.249L716.843 106H722.624V146H718.093V115.609H717.702L705.202 146H700.827L688.327 115.609H687.937V146H683.405V106ZM732.336 146V106H756.477V110.297H737.18V123.812H755.227V128.109H737.18V141.703H756.789V146H732.336ZM780.676 146V106H794.191C797.316 106 799.882 106.534 801.887 107.602C803.892 108.656 805.376 110.108 806.34 111.957C807.303 113.806 807.785 115.909 807.785 118.266C807.785 120.622 807.303 122.712 806.34 124.535C805.376 126.358 803.898 127.79 801.906 128.832C799.914 129.861 797.368 130.375 794.27 130.375H783.332V126H794.113C796.249 126 797.967 125.687 799.27 125.062C800.585 124.437 801.535 123.552 802.121 122.406C802.72 121.247 803.02 119.867 803.02 118.266C803.02 116.664 802.72 115.264 802.121 114.066C801.522 112.868 800.565 111.944 799.25 111.293C797.935 110.629 796.197 110.297 794.035 110.297H785.52V146H780.676ZM799.504 128.031L809.348 146H803.723L794.035 128.031H799.504ZM815.856 146V106H839.997V110.297H820.7V123.812H838.747V128.109H820.7V141.703H840.31V146H815.856ZM848.728 106H854.509L868.103 139.203H868.571L882.165 106H887.946V146H883.415V115.609H883.024L870.524 146H866.149L853.649 115.609H853.259V146H848.728V106ZM899.299 146H894.221L908.908 106H913.908L928.596 146H923.518L911.564 112.328H911.252L899.299 146ZM901.174 130.375H921.643V134.672H901.174V130.375ZM939.67 106V146H934.826V106H939.67ZM981.101 106V146H976.413L954.616 114.594H954.226V146H949.382V106H954.069L975.944 137.484H976.335V106H981.101ZM995.637 106V146H990.793V106H995.637ZM1037.07 106V146H1032.38L1010.58 114.594H1010.19V146H1005.35V106H1010.04L1031.91 137.484H1032.3V106H1037.07ZM1074.1 118.5C1073.67 117.185 1073.11 116.007 1072.4 114.965C1071.71 113.91 1070.89 113.012 1069.92 112.27C1068.97 111.527 1067.89 110.961 1066.68 110.57C1065.47 110.18 1064.14 109.984 1062.7 109.984C1060.33 109.984 1058.17 110.596 1056.23 111.82C1054.29 113.044 1052.75 114.848 1051.6 117.23C1050.46 119.613 1049.88 122.536 1049.88 126C1049.88 129.464 1050.46 132.387 1051.62 134.77C1052.78 137.152 1054.35 138.956 1056.33 140.18C1058.31 141.404 1060.54 142.016 1063.01 142.016C1065.3 142.016 1067.32 141.527 1069.06 140.551C1070.82 139.561 1072.19 138.168 1073.17 136.371C1074.16 134.561 1074.65 132.432 1074.65 129.984L1076.13 130.297H1064.1V126H1079.34V130.297C1079.34 133.591 1078.63 136.456 1077.23 138.891C1075.84 141.326 1073.91 143.214 1071.45 144.555C1069 145.883 1066.19 146.547 1063.01 146.547C1059.47 146.547 1056.36 145.714 1053.67 144.047C1051 142.38 1048.92 140.01 1047.42 136.937C1045.94 133.865 1045.2 130.219 1045.2 126C1045.2 122.836 1045.62 119.991 1046.47 117.465C1047.33 114.926 1048.54 112.764 1050.1 110.98C1051.66 109.197 1053.51 107.829 1055.65 106.879C1057.78 105.928 1060.13 105.453 1062.7 105.453C1064.81 105.453 1066.77 105.772 1068.6 106.41C1070.43 107.035 1072.07 107.927 1073.5 109.086C1074.94 110.232 1076.15 111.605 1077.11 113.207C1078.07 114.796 1078.74 116.56 1079.1 118.5H1074.1ZM1090.37 140.883C1089.4 140.883 1088.58 140.538 1087.89 139.848C1087.2 139.158 1086.85 138.331 1086.85 137.367C1086.85 136.404 1087.2 135.577 1087.89 134.887C1088.58 134.197 1089.4 133.852 1090.37 133.852C1091.33 133.852 1092.16 134.197 1092.85 134.887C1093.54 135.577 1093.88 136.404 1093.88 137.367C1093.88 138.005 1093.72 138.591 1093.4 139.125C1093.08 139.659 1092.66 140.089 1092.13 140.414C1091.61 140.727 1091.02 140.883 1090.37 140.883ZM1090.37 120.648C1089.4 120.648 1088.58 120.303 1087.89 119.613C1087.2 118.923 1086.85 118.096 1086.85 117.133C1086.85 116.169 1087.2 115.342 1087.89 114.652C1088.58 113.962 1089.4 113.617 1090.37 113.617C1091.33 113.617 1092.16 113.962 1092.85 114.652C1093.54 115.342 1093.88 116.169 1093.88 117.133C1093.88 117.771 1093.72 118.357 1093.4 118.891C1093.08 119.424 1092.66 119.854 1092.13 120.18C1091.61 120.492 1091.02 120.648 1090.37 120.648Z" fill="#E0AD41"/>
<path d="M249.68 70.64V86.2H252.44V73.4H266.76V86H269.64V70.64H249.68ZM268.16 49.56C263.72 51.16 255.6 52.4 248.64 53.16C249 53.84 249.4 55 249.52 55.72C256.68 55.04 265.04 53.8 270.52 51.92L268.16 49.56ZM258.32 53.04V72.24H261.2V53.04H258.32ZM246.76 61.16V64.04H272.24V61.16H246.76ZM251.56 81.72V84.48H268.08V81.72H251.56ZM237.6 52.04C240.08 53.36 243.4 55.32 245.08 56.52L246.84 54.08C245.12 52.92 241.72 51.12 239.28 49.92L237.6 52.04ZM235.64 63.08C238.08 64.36 241.4 66.28 243.04 67.4L244.72 64.96C243.04 63.8 239.68 62.04 237.32 60.88L235.64 63.08ZM236.6 83.64L239.12 85.68C241.48 81.96 244.28 76.96 246.4 72.72L244.24 70.76C241.92 75.32 238.76 80.6 236.6 83.64ZM276.76 75.56V77.84H295V75.56H276.76ZM275.68 56.28V58.6H295.64V56.28H275.68ZM284.36 52.64V82.08H287.12V52.64H284.36ZM275.64 82.16L276.08 84.76C281.16 84.24 288.4 83.4 295.2 82.6L295.16 80.24C288 81 280.52 81.72 275.64 82.16ZM279.36 68.08H292.32V71.04H279.36V68.08ZM279.36 63.2H292.32V66.08H279.36V63.2ZM276.84 61.12V73.12H294.88V61.12H276.84ZM293.44 49.8C289.32 50.76 282.04 51.48 276.08 51.8C276.4 52.4 276.68 53.4 276.8 54.04C282.8 53.84 290.24 53.16 294.96 52.12L293.44 49.8ZM295.36 58.76V61.56H309.8V58.76H295.36ZM308.64 58.76V59.48C308.2 75.68 307.76 81.44 306.76 82.68C306.4 83.2 306 83.32 305.36 83.32C304.56 83.32 302.8 83.28 300.84 83.12C301.32 83.92 301.64 85.16 301.72 86C303.56 86.12 305.48 86.12 306.6 86C307.8 85.88 308.6 85.52 309.32 84.48C310.64 82.76 311.04 77.16 311.48 60.28C311.48 59.88 311.52 58.76 311.52 58.76H308.64ZM300.2 49.92C300.16 65.04 300.36 77.72 291.2 84.28C291.92 84.76 292.96 85.72 293.44 86.44C303 79.28 303.04 65.84 303.08 49.92H300.2ZM333.48 58.76V61.28H348.4V58.76H333.48ZM327.24 82.72L328.24 85.64C332.12 84.76 337.48 83.6 342.52 82.44L342.32 79.8C336.72 80.92 330.92 82.08 327.24 82.72ZM331.76 51.2V82.96H334.68V51.2H331.76ZM333.48 51.2V53.84H346.88V66.32H333.48V68.96H349.8V51.2H333.48ZM341.2 67.24L338.72 67.72C340.56 76.16 344.28 82.92 350.52 86.08C350.96 85.32 351.84 84.2 352.52 83.6C346.56 80.96 342.92 74.72 341.2 67.24ZM349.16 69.88C347.48 71.8 344.48 74.32 342.32 75.88L344.2 77.4C346.44 75.92 349.28 73.68 351.52 71.6L349.16 69.88ZM317.24 51.16V86.24H320.08V53.88H327.48V51.16H317.24ZM326.6 51.16V52C325.68 54.76 324.04 59.6 322.44 63.24C325.56 66.36 326.4 69 326.4 71.2C326.44 72.44 326.2 73.48 325.52 73.92C325.12 74.16 324.64 74.28 324.12 74.32C323.4 74.36 322.52 74.36 321.48 74.24C321.96 75.04 322.2 76.24 322.24 76.96C323.24 77.04 324.36 77.04 325.28 76.92C326.12 76.84 326.88 76.6 327.48 76.2C328.68 75.36 329.2 73.72 329.2 71.52C329.2 69.04 328.44 66.2 325.2 62.88C326.68 59.72 328.36 55.6 329.64 52.28L327.6 51.04L327.16 51.16H326.6ZM363.24 59.92H384.68V64.28H363.24V59.92ZM363.24 53.24H384.68V57.52H363.24V53.24ZM360.24 50.72V66.76H387.76V50.72H360.24ZM378.4 65.12L375.84 66.08C379 70.64 384.72 74.44 390.44 76.28C390.88 75.48 391.76 74.32 392.44 73.72C386.84 72.24 381.2 69 378.4 65.12ZM369.76 65.12C366.88 68.96 361.16 72.4 355.76 73.96C356.44 74.56 357.32 75.68 357.8 76.44C363.28 74.48 369.16 70.64 372.36 66.2L369.76 65.12ZM366.44 72.16V74.56C366.44 77.52 365.72 81.4 358.68 84.04C359.36 84.64 360.32 85.68 360.76 86.44C368.52 83.32 369.48 78.48 369.48 74.64V72.16H366.44ZM372.4 52.04V65.64H375.44V52.04H372.4ZM379.16 72.16V86.12H382.24V72.16H379.16ZM416.88 51.28H413.48C413.6 51.8 413.64 53 413.64 53.68C413.64 56.48 413.64 60.68 413.64 64.28C413.64 67.8 414.04 75.48 414.04 78.56C414.04 81.36 412.08 82.04 409.76 82.04C405.8 82.04 404.24 80.68 404.24 78.8C404.24 76.96 406.28 75.48 410.12 75.48C417.24 75.48 423.16 79.48 426.76 82.8L428.6 79.96C425.52 77.44 418.92 72.88 410.48 72.88C404.72 72.88 401.24 75.32 401.24 78.96C401.24 82.84 404.4 84.88 410.16 84.88C415.36 84.88 417.2 82.04 417.2 79.24C417.2 76.56 416.6 69.56 416.6 64.28C416.6 60.92 416.6 55.56 416.68 53.96C416.72 52.76 416.8 51.96 416.88 51.28ZM401.6 55.6L401.64 58.56C404.16 58.88 409.08 59.24 411.84 59.24C417.2 59.24 422.92 58.72 427.44 58.2V55.28C422.24 56.12 416.88 56.48 411.8 56.48C409.16 56.48 404.16 56.08 401.6 55.6ZM401.4 64.12L401.44 67.12C404.28 67.44 408.68 67.64 411.44 67.64C417.44 67.64 422.32 67.36 427.76 66.68V63.68C422.56 64.44 417.24 64.84 411.44 64.84C408.8 64.84 404.24 64.56 401.4 64.12ZM437.12 56.68L437.48 60.2C441.8 59.28 452 58.28 456.28 57.84C452.64 60 448.84 65.12 448.84 71.32C448.84 80.28 457.24 84.2 464.64 84.48L465.8 81.2C459.32 80.96 452 78.44 452 70.64C452 65.92 455.48 59.8 461.2 57.96C463.24 57.4 466.72 57.32 469.04 57.36L469 54.16C466.32 54.24 462.6 54.48 458.2 54.84C450.84 55.48 443.28 56.2 440.72 56.48C439.92 56.56 438.64 56.64 437.12 56.68ZM463.24 62.24L461.24 63.12C462.44 64.8 463.56 66.84 464.48 68.76L466.56 67.84C465.68 66.04 464.16 63.56 463.24 62.24ZM467.6 60.56L465.64 61.48C466.88 63.16 468.08 65.16 469.04 67.08L471.08 66.08C470.16 64.32 468.6 61.88 467.6 60.56Z" fill="#E0AD41"/>
<path d="M445.299 479.25L471.049 452.25H532.799L557.049 479.25H445.299ZM437.799 356.5L464.799 382.5V443.75L437.799 468.25V356.5ZM565.049 468.25L538.049 442.5V381L565.049 356.5V468.25ZM445.049 225.25H556.799L532.049 252.25H470.799L445.049 225.25ZM437.049 347.75V236L464.049 260.25V322.25L437.049 347.75ZM564.299 236V347.75L537.299 323.5V261.75L564.299 236ZM645.25 479.25L671 452.25H732.75L757 479.25H645.25ZM637.75 356.5L664.75 382.5V443.75L637.75 468.25V356.5ZM765 468.25L738 442.5V381L765 356.5V468.25ZM666.75 365.5C660.917 360.833 655 356.25 649 351.75L666.75 338.5H735L752.5 351.75L735 365.5H666.75ZM645 225.25H756.75L732 252.25H670.75L645 225.25ZM637 347.75V236L664 260.25V322.25L637 347.75Z" fill="#E0AD41"/>
<path d="M855.299 478.25L881.049 451.25H942.799L967.049 478.25H855.299ZM847.799 355.5L874.799 381.5V442.75L847.799 467.25V355.5ZM876.799 364.5C870.965 359.833 865.049 355.25 859.049 350.75L876.799 337.5H945.049L962.549 350.75L945.049 364.5H876.799ZM855.049 224.25H966.799L942.049 251.25H880.799L855.049 224.25ZM974.299 235V346.75L947.299 322.5V260.75L974.299 235ZM1055.25 478.25L1081 451.25H1142.75L1167 478.25H1055.25ZM1047.75 355.5L1074.75 381.5V442.75L1047.75 467.25V355.5ZM1175 467.25L1148 441.5V380L1175 355.5V467.25ZM1076.75 364.5C1070.92 359.833 1065 355.25 1059 350.75L1076.75 337.5H1145L1162.5 350.75L1145 364.5H1076.75ZM1055 224.25H1166.75L1142 251.25H1080.75L1055 224.25ZM1047 346.75V235L1074 259.25V321.25L1047 346.75Z" fill="#E0AD41"/>
<path d="M1322.22 521.3L1332.52 510.5H1357.22L1366.92 521.3H1322.22ZM1370.12 516.9L1359.32 506.6V482L1370.12 472.2V516.9ZM1330.82 475.8C1328.49 473.933 1326.12 472.1 1323.72 470.3L1330.82 465H1358.12L1365.12 470.3L1358.12 475.8H1330.82ZM1322.12 419.7H1366.82L1356.92 430.5H1332.42L1322.12 419.7ZM1318.92 468.7V424L1329.72 433.7V458.5L1318.92 468.7ZM1450.1 516.9L1439.3 506.6V482L1450.1 472.2V516.9ZM1410.8 475.8C1408.47 473.933 1406.1 472.1 1403.7 470.3L1410.8 465H1438.1L1445.1 470.3L1438.1 475.8H1410.8ZM1402.1 419.7H1446.8L1436.9 430.5H1412.4L1402.1 419.7ZM1398.9 468.7V424L1409.7 433.7V458.5L1398.9 468.7ZM1449.8 424V468.7L1439 459V434.3L1449.8 424Z" fill="#E0AD41"/>
<path d="M788.274 363H819.774V394.25H788.274V363ZM788.274 288.75H819.774V320.75H788.274V288.75Z" fill="#E0AD41"/>
<path d="M1261.05 490.28H1284.99V514.03H1261.05V490.28ZM1261.05 433.85H1284.99V458.17H1261.05V433.85Z" fill="#E0AD41"/>
</svg>
