<svg width="1724" height="1117" viewBox="0 0 1724 1117" fill="none" xmlns="http://www.w3.org/2000/svg">
<rect x="-4" width="59" height="1117" fill="black"/>
<rect x="1665" width="59" height="1117" fill="black"/>
<path d="M420.5 907.5H1724V1117H303L420.5 907.5Z" fill="black"/>
<rect x="-4" width="1728" height="92" fill="black"/>
<rect x="31" y="1039" width="16.8511" height="10" rx="5" fill="#78C9A7"/>
<rect x="58.149" y="1039" width="16.8511" height="10" rx="5" fill="black"/>
<rect x="31" y="937" width="16.8511" height="10" rx="5" fill="#78C9A7"/>
<rect x="58.149" y="937" width="16.8511" height="10" rx="5" fill="black"/>
<rect x="31" y="835" width="16.8511" height="10" rx="5" fill="#78C9A7"/>
<rect x="58.149" y="835" width="16.8511" height="10" rx="5" fill="black"/>
<rect x="31" y="733" width="16.8511" height="10" rx="5" fill="#78C9A7"/>
<rect x="58.149" y="733" width="16.8511" height="10" rx="5" fill="black"/>
<rect x="31" y="631" width="16.8511" height="10" rx="5" fill="#78C9A7"/>
<rect x="58.149" y="631" width="16.8511" height="10" rx="5" fill="black"/>
<rect x="31" y="529" width="16.8511" height="10" rx="5" fill="#78C9A7"/>
<rect x="58.149" y="529" width="16.8511" height="10" rx="5" fill="black"/>
<rect x="31" y="427" width="16.8511" height="10" rx="5" fill="#78C9A7"/>
<rect x="58.149" y="427" width="16.8511" height="10" rx="5" fill="black"/>
<rect x="31" y="325" width="16.8511" height="10" rx="5" fill="#78C9A7"/>
<rect x="58.149" y="325" width="16.8511" height="10" rx="5" fill="black"/>
<rect x="31" y="223" width="16.8511" height="10" rx="5" fill="#78C9A7"/>
<rect x="58.149" y="223" width="16.8511" height="10" rx="5" fill="black"/>
<rect x="31" y="121" width="16.8511" height="10" rx="5" fill="#78C9A7"/>
<rect x="58.149" y="121" width="16.8511" height="10" rx="5" fill="black"/>
<rect x="117" y="69" width="16.8511" height="10" rx="5" transform="rotate(90 117 69)" fill="#78C9A7"/>
<rect x="117" y="96.149" width="16.8511" height="10" rx="5" transform="rotate(90 117 96.149)" fill="black"/>
<rect x="313" y="69" width="16.8511" height="10" rx="5" transform="rotate(90 313 69)" fill="#78C9A7"/>
<rect x="313" y="96.149" width="16.8511" height="10" rx="5" transform="rotate(90 313 96.149)" fill="black"/>
<rect x="509" y="69" width="16.8511" height="10" rx="5" transform="rotate(90 509 69)" fill="#78C9A7"/>
<rect x="509" y="96.149" width="16.8511" height="10" rx="5" transform="rotate(90 509 96.149)" fill="black"/>
<rect x="705" y="69" width="16.8511" height="10" rx="5" transform="rotate(90 705 69)" fill="#78C9A7"/>
<rect x="705" y="96.149" width="16.8511" height="10" rx="5" transform="rotate(90 705 96.149)" fill="black"/>
<rect x="901" y="69" width="16.8511" height="10" rx="5" transform="rotate(90 901 69)" fill="#78C9A7"/>
<rect x="901" y="96.149" width="16.8511" height="10" rx="5" transform="rotate(90 901 96.149)" fill="black"/>
<rect x="1097" y="69" width="16.8511" height="10" rx="5" transform="rotate(90 1097 69)" fill="#78C9A7"/>
<rect x="1097" y="96.149" width="16.8511" height="10" rx="5" transform="rotate(90 1097 96.149)" fill="black"/>
<rect x="1293" y="69" width="16.8511" height="10" rx="5" transform="rotate(90 1293 69)" fill="#78C9A7"/>
<rect x="1293" y="96.149" width="16.8511" height="10" rx="5" transform="rotate(90 1293 96.149)" fill="black"/>
<rect x="1489" y="69" width="16.8511" height="10" rx="5" transform="rotate(90 1489 69)" fill="#78C9A7"/>
<rect x="1489" y="96.149" width="16.8511" height="10" rx="5" transform="rotate(90 1489 96.149)" fill="black"/>
<rect x="219" y="69" width="16.8511" height="10" rx="5" transform="rotate(90 219 69)" fill="#78C9A7"/>
<rect x="219" y="96.149" width="16.8511" height="10" rx="5" transform="rotate(90 219 96.149)" fill="black"/>
<rect x="415" y="69" width="16.8511" height="10" rx="5" transform="rotate(90 415 69)" fill="#78C9A7"/>
<rect x="415" y="96.149" width="16.8511" height="10" rx="5" transform="rotate(90 415 96.149)" fill="black"/>
<rect x="611" y="69" width="16.8511" height="10" rx="5" transform="rotate(90 611 69)" fill="#78C9A7"/>
<rect x="611" y="96.149" width="16.8511" height="10" rx="5" transform="rotate(90 611 96.149)" fill="black"/>
<rect x="807" y="69" width="16.8511" height="10" rx="5" transform="rotate(90 807 69)" fill="#78C9A7"/>
<rect x="807" y="96.149" width="16.8511" height="10" rx="5" transform="rotate(90 807 96.149)" fill="black"/>
<rect x="1003" y="69" width="16.8511" height="10" rx="5" transform="rotate(90 1003 69)" fill="#78C9A7"/>
<rect x="1003" y="96.149" width="16.8511" height="10" rx="5" transform="rotate(90 1003 96.149)" fill="black"/>
<rect x="1199" y="69" width="16.8511" height="10" rx="5" transform="rotate(90 1199 69)" fill="#78C9A7"/>
<rect x="1199" y="96.149" width="16.8511" height="10" rx="5" transform="rotate(90 1199 96.149)" fill="black"/>
<rect x="1395" y="69" width="16.8511" height="10" rx="5" transform="rotate(90 1395 69)" fill="#78C9A7"/>
<rect x="1395" y="96.149" width="16.8511" height="10" rx="5" transform="rotate(90 1395 96.149)" fill="black"/>
<rect x="1591" y="69" width="16.8511" height="10" rx="5" transform="rotate(90 1591 69)" fill="#78C9A7"/>
<rect x="1591" y="96.149" width="16.8511" height="10" rx="5" transform="rotate(90 1591 96.149)" fill="black"/>
</svg>
