<svg width="1728" height="1117" viewBox="0 0 1728 1117" fill="none" xmlns="http://www.w3.org/2000/svg">
<g id="Full">
<path id="Background" d="M0 0H1728V1117C1053.17 1117 674.826 1117 0 1117V0Z" fill="url(#paint0_linear_10_2)"/>
<g id="Base">
<g id="Border">
<g id="Border_2">
<rect id="Rectangle 7" x="-4" width="59" height="1117" fill="black"/>
<rect id="Rectangle 5" x="1665" width="59" height="1117" fill="black"/>
<path id="Rectangle 6" d="M420.5 907.5H1724V1117H303L420.5 907.5Z" fill="black"/>
<rect id="Rectangle 4" x="-4" width="1728" height="92" fill="black"/>
</g>
<g id="Pills">
<g id="Pills_2">
<rect id="Rectangle 24" x="31" y="1039" width="16.8511" height="10" rx="5" fill="#78C9A7"/>
<rect id="Rectangle 25" x="58.149" y="1039" width="16.8511" height="10" rx="5" fill="black"/>
</g>
<g id="Pills_3">
<rect id="Rectangle 24_2" x="31" y="937" width="16.8511" height="10" rx="5" fill="#78C9A7"/>
<rect id="Rectangle 25_2" x="58.149" y="937" width="16.8511" height="10" rx="5" fill="black"/>
</g>
<g id="Pills_4">
<rect id="Rectangle 24_3" x="31" y="835" width="16.8511" height="10" rx="5" fill="#78C9A7"/>
<rect id="Rectangle 25_3" x="58.149" y="835" width="16.8511" height="10" rx="5" fill="black"/>
</g>
<g id="Pills_5">
<rect id="Rectangle 24_4" x="31" y="733" width="16.8511" height="10" rx="5" fill="#78C9A7"/>
<rect id="Rectangle 25_4" x="58.149" y="733" width="16.8511" height="10" rx="5" fill="black"/>
</g>
<g id="Pills_6">
<rect id="Rectangle 24_5" x="31" y="631" width="16.8511" height="10" rx="5" fill="#78C9A7"/>
<rect id="Rectangle 25_5" x="58.149" y="631" width="16.8511" height="10" rx="5" fill="black"/>
</g>
<g id="Pills_7">
<rect id="Rectangle 24_6" x="31" y="529" width="16.8511" height="10" rx="5" fill="#78C9A7"/>
<rect id="Rectangle 25_6" x="58.149" y="529" width="16.8511" height="10" rx="5" fill="black"/>
</g>
<g id="Pills_8">
<rect id="Rectangle 24_7" x="31" y="427" width="16.8511" height="10" rx="5" fill="#78C9A7"/>
<rect id="Rectangle 25_7" x="58.149" y="427" width="16.8511" height="10" rx="5" fill="black"/>
</g>
<g id="Pills_9">
<rect id="Rectangle 24_8" x="31" y="325" width="16.8511" height="10" rx="5" fill="#78C9A7"/>
<rect id="Rectangle 25_8" x="58.149" y="325" width="16.8511" height="10" rx="5" fill="black"/>
</g>
<g id="Pills_10">
<rect id="Rectangle 24_9" x="31" y="223" width="16.8511" height="10" rx="5" fill="#78C9A7"/>
<rect id="Rectangle 25_9" x="58.149" y="223" width="16.8511" height="10" rx="5" fill="black"/>
</g>
<g id="Pills_11">
<rect id="Rectangle 24_10" x="31" y="121" width="16.8511" height="10" rx="5" fill="#78C9A7"/>
<rect id="Rectangle 25_10" x="58.149" y="121" width="16.8511" height="10" rx="5" fill="black"/>
</g>
<g id="Pills_12">
<rect id="Rectangle 24_11" x="117" y="69" width="16.8511" height="10" rx="5" transform="rotate(90 117 69)" fill="#78C9A7"/>
<rect id="Rectangle 25_11" x="117" y="96.149" width="16.8511" height="10" rx="5" transform="rotate(90 117 96.149)" fill="black"/>
</g>
<g id="Pills_13">
<rect id="Rectangle 24_12" x="313" y="69" width="16.8511" height="10" rx="5" transform="rotate(90 313 69)" fill="#78C9A7"/>
<rect id="Rectangle 25_12" x="313" y="96.149" width="16.8511" height="10" rx="5" transform="rotate(90 313 96.149)" fill="black"/>
</g>
<g id="Pills_14">
<rect id="Rectangle 24_13" x="509" y="69" width="16.8511" height="10" rx="5" transform="rotate(90 509 69)" fill="#78C9A7"/>
<rect id="Rectangle 25_13" x="509" y="96.149" width="16.8511" height="10" rx="5" transform="rotate(90 509 96.149)" fill="black"/>
</g>
<g id="Pills_15">
<rect id="Rectangle 24_14" x="705" y="69" width="16.8511" height="10" rx="5" transform="rotate(90 705 69)" fill="#78C9A7"/>
<rect id="Rectangle 25_14" x="705" y="96.149" width="16.8511" height="10" rx="5" transform="rotate(90 705 96.149)" fill="black"/>
</g>
<g id="Pills_16">
<rect id="Rectangle 24_15" x="901" y="69" width="16.8511" height="10" rx="5" transform="rotate(90 901 69)" fill="#78C9A7"/>
<rect id="Rectangle 25_15" x="901" y="96.149" width="16.8511" height="10" rx="5" transform="rotate(90 901 96.149)" fill="black"/>
</g>
<g id="Pills_17">
<rect id="Rectangle 24_16" x="1097" y="69" width="16.8511" height="10" rx="5" transform="rotate(90 1097 69)" fill="#78C9A7"/>
<rect id="Rectangle 25_16" x="1097" y="96.149" width="16.8511" height="10" rx="5" transform="rotate(90 1097 96.149)" fill="black"/>
</g>
<g id="Pills_18">
<rect id="Rectangle 24_17" x="1293" y="69" width="16.8511" height="10" rx="5" transform="rotate(90 1293 69)" fill="#78C9A7"/>
<rect id="Rectangle 25_17" x="1293" y="96.149" width="16.8511" height="10" rx="5" transform="rotate(90 1293 96.149)" fill="black"/>
</g>
<g id="Pills_19">
<rect id="Rectangle 24_18" x="1489" y="69" width="16.8511" height="10" rx="5" transform="rotate(90 1489 69)" fill="#78C9A7"/>
<rect id="Rectangle 25_18" x="1489" y="96.149" width="16.8511" height="10" rx="5" transform="rotate(90 1489 96.149)" fill="black"/>
</g>
<g id="Pills_20">
<rect id="Rectangle 24_19" x="219" y="69" width="16.8511" height="10" rx="5" transform="rotate(90 219 69)" fill="#78C9A7"/>
<rect id="Rectangle 25_19" x="219" y="96.149" width="16.8511" height="10" rx="5" transform="rotate(90 219 96.149)" fill="black"/>
</g>
<g id="Pills_21">
<rect id="Rectangle 24_20" x="415" y="69" width="16.8511" height="10" rx="5" transform="rotate(90 415 69)" fill="#78C9A7"/>
<rect id="Rectangle 25_20" x="415" y="96.149" width="16.8511" height="10" rx="5" transform="rotate(90 415 96.149)" fill="black"/>
</g>
<g id="Pills_22">
<rect id="Rectangle 24_21" x="611" y="69" width="16.8511" height="10" rx="5" transform="rotate(90 611 69)" fill="#78C9A7"/>
<rect id="Rectangle 25_21" x="611" y="96.149" width="16.8511" height="10" rx="5" transform="rotate(90 611 96.149)" fill="black"/>
</g>
<g id="Pills_23">
<rect id="Rectangle 24_22" x="807" y="69" width="16.8511" height="10" rx="5" transform="rotate(90 807 69)" fill="#78C9A7"/>
<rect id="Rectangle 25_22" x="807" y="96.149" width="16.8511" height="10" rx="5" transform="rotate(90 807 96.149)" fill="black"/>
</g>
<g id="Pills_24">
<rect id="Rectangle 24_23" x="1003" y="69" width="16.8511" height="10" rx="5" transform="rotate(90 1003 69)" fill="#78C9A7"/>
<rect id="Rectangle 25_23" x="1003" y="96.149" width="16.8511" height="10" rx="5" transform="rotate(90 1003 96.149)" fill="black"/>
</g>
<g id="Pills_25">
<rect id="Rectangle 24_24" x="1199" y="69" width="16.8511" height="10" rx="5" transform="rotate(90 1199 69)" fill="#78C9A7"/>
<rect id="Rectangle 25_24" x="1199" y="96.149" width="16.8511" height="10" rx="5" transform="rotate(90 1199 96.149)" fill="black"/>
</g>
<g id="Pills_26">
<rect id="Rectangle 24_25" x="1395" y="69" width="16.8511" height="10" rx="5" transform="rotate(90 1395 69)" fill="#78C9A7"/>
<rect id="Rectangle 25_25" x="1395" y="96.149" width="16.8511" height="10" rx="5" transform="rotate(90 1395 96.149)" fill="black"/>
</g>
<g id="Pills_27">
<rect id="Rectangle 24_26" x="1591" y="69" width="16.8511" height="10" rx="5" transform="rotate(90 1591 69)" fill="#78C9A7"/>
<rect id="Rectangle 25_26" x="1591" y="96.149" width="16.8511" height="10" rx="5" transform="rotate(90 1591 96.149)" fill="black"/>
</g>
</g>
</g>
<g id="Content">
<g id="Buttons">
<g id="NORMAL">
<rect id="Block" x="932.5" y="747.5" width="217" height="93" fill="black" stroke="#E0AD41" stroke-width="3"/>
<text id="NORMAL &#230;&#173;&#163;&#229;&#184;&#184;" fill="#E0AD41" xml:space="preserve" style="white-space: pre" font-family="Inter" font-size="31" letter-spacing="0em"><tspan x="974.125" y="785.273">NORMAL&#10;</tspan><tspan x="1009.5" y="823.273">&#x6b63;&#x5e38;</tspan></text>
</g>
<g id="STOP">
<rect id="Block_2" x="443.5" y="747.5" width="217" height="93" fill="black" stroke="#E0AD41" stroke-width="3"/>
<text id="STOP &#227;&#130;&#132;&#227;&#130;&#129;&#227;&#130;&#139;" fill="#E0AD41" xml:space="preserve" style="white-space: pre" font-family="Inter" font-size="31" letter-spacing="0em"><tspan x="511.495" y="786.273">STOP&#10;</tspan><tspan x="506" y="824.273">&#x3084;&#x3081;&#x308b;</tspan></text>
</g>
<g id="SLOW">
<rect id="Block_3" x="688.5" y="747.5" width="216" height="93" fill="black" stroke="#E0AD41" stroke-width="3"/>
<text id="SLOW &#227;&#130;&#185;&#227;&#131;&#173;&#227;&#131;&#188;" fill="#E0AD41" xml:space="preserve" style="white-space: pre" font-family="Inter" font-size="31" letter-spacing="0em"><tspan x="751.816" y="786.273">SLOW&#10;</tspan><tspan x="750" y="824.273">&#x30b9;&#x30ed;&#x30fc;</tspan></text>
</g>
<g id="RACING">
<g id="Urgent block">
<rect id="Rectangle 22" x="1177.14" y="747.5" width="217.363" height="93" fill="black" stroke="#E0AD41" stroke-width="3"/>
<rect id="Rectangle 23" x="1178.64" y="811.01" width="214.363" height="27.9904" fill="#BD1900"/>
</g>
<text id="RACING_2" fill="#E0AD41" xml:space="preserve" style="white-space: pre" font-family="Inter" font-size="43" letter-spacing="0em"><tspan x="1204.96" y="794.636">RACING</tspan></text>
<text id="&#227;&#131;&#172;&#227;&#131;&#188;&#227;&#130;&#185;" fill="white" xml:space="preserve" style="white-space: pre" font-family="Inter" font-size="25" letter-spacing="0em"><tspan x="1248.62" y="833.591">&#x30ec;&#x30fc;&#x30b9;</tspan></text>
</g>
</g>
<g id="Content_2">
<g id="Group 1">
<path id="Rectangle 8" d="M401.481 871.5H400.615L400.182 872.25L257.701 1119.25L256.403 1121.5H259H283.411H284.276L284.709 1120.75L427.689 873.751L428.992 871.5H426.39H401.481Z" fill="black" stroke="black" stroke-width="3"/>
<path id="Vector" d="M403.474 871H401.474V873V896V898H403.474H1427.23H1429.23H1453.09H1455.09H1632H1634V896V692V690H1632H1429.23H1427.23V692V871H403.474Z" fill="black" stroke="black" stroke-width="4"/>
</g>
<path id="Rectangle 9" d="M303 311H404V716L182.5 1118H78.5L163.5 716L303 311Z" fill="black"/>
<g id="Union">
<mask id="path-71-outside-1_10_2" maskUnits="userSpaceOnUse" x="298.677" y="178" width="1338" height="542" fill="black">
<rect fill="white" x="298.677" y="178" width="1338" height="542"/>
<path fill-rule="evenodd" clip-rule="evenodd" d="M549.35 182H302.677V316H403.515V716H1632V227H571.015L549.35 182Z"/>
</mask>
<path fill-rule="evenodd" clip-rule="evenodd" d="M549.35 182H302.677V316H403.515V716H1632V227H571.015L549.35 182Z" fill="black"/>
<path d="M302.677 182V178H298.677V182H302.677ZM549.35 182L552.954 180.265L551.864 178H549.35V182ZM302.677 316H298.677V320H302.677V316ZM403.515 316H407.515V312H403.515V316ZM403.515 716H399.515V720H403.515V716ZM1632 716V720H1636V716H1632ZM1632 227H1636V223H1632V227ZM571.015 227L567.411 228.735L568.502 231H571.015V227ZM302.677 186H549.35V178H302.677V186ZM306.677 316V182H298.677V316H306.677ZM403.515 312H302.677V320H403.515V312ZM407.515 716V316H399.515V716H407.515ZM1632 712H403.515V720H1632V712ZM1628 227V716H1636V227H1628ZM571.015 231H1632V223H571.015V231ZM545.746 183.735L567.411 228.735L574.619 225.265L552.954 180.265L545.746 183.735Z" fill="#E0AD41" mask="url(#path-71-outside-1_10_2)"/>
</g>
</g>
<g id="Power source">
<rect id="Rectangle 10" x="1327.5" y="427.5" width="271" height="149" fill="black" stroke="#E0AD41" stroke-width="3"/>
<text id="&#228;&#184;&#187;&#227;&#130;&#168;&#227;&#131;&#141;&#227;&#131;&#171;&#227;&#130;&#174;&#227;&#131;&#188;&#228;&#190;&#155;&#231;&#181;&#166;&#227;&#130;&#183;&#227;&#130;&#185;&#227;&#131;&#134;&#227;&#131;&#160;" fill="#E0AD41" xml:space="preserve" style="white-space: pre" font-family="Inter" font-size="21" letter-spacing="0em"><tspan x="1337.32" y="478.636">&#x4e3b;&#x30a8;&#x30cd;&#x30eb;&#x30ae;&#x30fc;&#x4f9b;&#x7d66;&#x30b7;&#x30b9;&#x30c6;&#x30e0;</tspan></text>
<text id="MAIN ENERGY SUPPLY SYSTEM" fill="#E0AD41" xml:space="preserve" style="white-space: pre" font-family="Inter" font-size="25" letter-spacing="0em"><tspan x="1377.53" y="526.091">MAIN ENERGY </tspan><tspan x="1360.6" y="556.091">SUPPLY SYSTEM</tspan></text>
</g>
<g id="Info">
<rect id="Rectangle 10_2" x="1327.5" y="259.5" width="271" height="149" fill="black" stroke="#E0AD41" stroke-width="3"/>
<g id="Dashed red block">
<mask id="mask0_10_2" style="mask-type:alpha" maskUnits="userSpaceOnUse" x="1511" y="261" width="86" height="146">
<rect id="Rectangle 20" x="1511" y="261" width="86" height="146" fill="black"/>
</mask>
<g mask="url(#mask0_10_2)">
<g id="Group 3">
<rect id="Rectangle 11" width="23.7537" height="268.047" transform="matrix(0.766044 0.642788 -0.726869 0.686776 1523.25 192.841)" fill="#BD1900"/>
<rect id="Rectangle 12" width="23.7537" height="268.047" transform="matrix(0.766044 0.642788 -0.726869 0.686776 1549.87 215.178)" fill="#BD1900"/>
<rect id="Rectangle 13" width="23.7537" height="268.047" transform="matrix(0.766044 0.642788 -0.726869 0.686776 1576.49 237.516)" fill="#BD1900"/>
<rect id="Rectangle 14" width="23.7537" height="268.047" transform="matrix(0.766044 0.642788 -0.726869 0.686776 1603.11 259.853)" fill="#BD1900"/>
<rect id="Rectangle 15" width="23.7537" height="268.047" transform="matrix(0.766044 0.642788 -0.726869 0.686776 1629.73 282.191)" fill="#BD1900"/>
<rect id="Rectangle 16" width="23.7537" height="268.047" transform="matrix(0.766044 0.642788 -0.726869 0.686776 1656.35 304.528)" fill="#BD1900"/>
<rect id="Rectangle 17" width="23.7537" height="268.047" transform="matrix(0.766044 0.642788 -0.726869 0.686776 1682.97 326.865)" fill="#BD1900"/>
<rect id="Rectangle 18" width="23.7537" height="268.047" transform="matrix(0.766044 0.642788 -0.726869 0.686776 1709.59 349.203)" fill="#BD1900"/>
<rect id="Rectangle 19" width="23.7537" height="268.047" transform="matrix(0.766044 0.642788 -0.726869 0.686776 1736.21 371.54)" fill="#BD1900"/>
</g>
</g>
</g>
<text id="&#229;&#134;&#133;&#233;&#131;&#168;" fill="#E0AD41" xml:space="preserve" style="white-space: pre" font-family="Inter" font-size="45" letter-spacing="0em"><tspan x="1375" y="308.364">&#x5185;&#x90e8;</tspan></text>
<text id="INTERNAL" fill="#E0AD41" xml:space="preserve" style="white-space: pre" font-family="Inter" font-size="34" letter-spacing="0em"><tspan x="1336.91" y="366.864">INTERNAL</tspan></text>
</g>
<g id="Header">
<text id="ACTIVE TIME REMAINING:" fill="#E0AD41" xml:space="preserve" style="white-space: pre" font-family="Inter" font-size="55" letter-spacing="0em"><tspan x="496.063" y="323.5">ACTIVE TIME REMAINING:</tspan></text>
<text id="&#230;&#180;&#187;&#229;&#139;&#149;&#233;&#153;&#144;&#231;&#149;&#140;&#227;&#129;&#190;&#227;&#129;&#167;" fill="#E0AD41" xml:space="preserve" style="white-space: pre" font-family="Inter" font-size="40" letter-spacing="0em"><tspan x="312" y="260.545">&#x6d3b;&#x52d5;&#x9650;&#x754c;&#x307e;&#x3067;</tspan></text>
</g>
<g id="Time">
<text id="Sep" fill="#E0AD41" xml:space="preserve" style="white-space: pre" font-family="Digital Numbers" font-size="250" letter-spacing="0em"><tspan x="782.024" y="612.625">:</tspan></text>
<text id="Sep2" fill="#E0AD41" xml:space="preserve" style="white-space: pre" font-family="Digital Numbers" font-size="190" letter-spacing="0em"><tspan x="1275.02" y="722.915">:</tspan></text>
<text id="Hour" fill="#E0AD41" xml:space="preserve" style="white-space: pre" font-family="Digital Numbers" font-size="250" letter-spacing="0em"><tspan x="479.049" y="604.125">06</tspan></text>
<text id="Minute" fill="#E0AD41" xml:space="preserve" style="white-space: pre" font-family="Digital Numbers" font-size="250" letter-spacing="0em"><tspan x="889.049" y="603.125">26</tspan></text>
<text id="Second" fill="#E0AD41" xml:space="preserve" style="white-space: pre" font-family="Digital Numbers" font-size="100" letter-spacing="0em"><tspan x="1382.52" y="678.35">59</tspan></text>
</g>
</g>
</g>
</g>
<defs>
<linearGradient id="paint0_linear_10_2" x1="2.4746e-05" y1="557.882" x2="1729.1" y2="637.261" gradientUnits="userSpaceOnUse">
<stop stop-color="#7D2A08"/>
<stop offset="0.104167" stop-color="#995714"/>
<stop offset="0.276042" stop-color="#A99222"/>
<stop offset="0.427083" stop-color="#949B22"/>
<stop offset="0.567708" stop-color="#799227"/>
<stop offset="0.713542" stop-color="#558323"/>
<stop offset="0.859375" stop-color="#4C7533"/>
<stop offset="1" stop-color="#385C4D"/>
</linearGradient>
</defs>
</svg>
